# Made in Blockbench 4.9.4
mtllib bijuudama.mtl

o sphere
v 8.866621472578471e-17 -0.125 -1.8250779791737608e-17
v 8.866621472578471e-17 1.5 -1.8250779791737608e-17
v 0.039766580510187804 1.4602334194898123 0.25107630792964475
v 0.07564053104997985 1.3448263079296447 0.47757551748763444
v 0.10411025939203067 1.1650755174876344 0.6573263079296447
v 0.1223889501659591 0.9385763079296447 0.7727334194898122
v 0.1286873577636858 0.6875 0.8125
v 0.12238895016595912 0.43642369207035525 0.7727334194898123
v 0.10411025939203067 0.20992448251236567 0.6573263079296447
v 0.07564053104997986 0.03017369207035525 0.4775755174876345
v 0.03976658051018782 -0.08523341948981222 0.25107630792964486
v 0.11540711156016754 1.4602334194898123 0.22649920955798958
v 0.21951737095219814 1.3448263079296447 0.43082709837165517
v 0.3021397406079695 1.1650755174876344 0.5929826290478019
v 0.35518656732167536 0.9385763079296447 0.6970928884398324
v 0.3734652580956039 0.6875 0.7329668389796246
v 0.3551865673216754 0.43642369207035525 0.6970928884398325
v 0.3021397406079695 0.20992448251236567 0.5929826290478019
v 0.21951737095219817 0.03017369207035525 0.4308270983716552
v 0.11540711156016759 -0.08523341948981222 0.22649920955798966
v 0.1797507904420104 1.4602334194898123 0.1797507904420103
v 0.3419063211181572 1.3448263079296447 0.34190632111815716
v 0.4705936788818429 1.1650755174876344 0.4705936788818429
v 0.5532160485376142 0.9385763079296447 0.5532160485376141
v 0.581685776879665 0.6875 0.581685776879665
v 0.5532160485376142 0.43642369207035525 0.5532160485376142
v 0.4705936788818429 0.20992448251236567 0.4705936788818429
v 0.3419063211181572 0.03017369207035525 0.34190632111815716
v 0.17975079044201048 -0.08523341948981222 0.1797507904420104
v 0.22649920955798963 1.4602334194898123 0.11540711156016746
v 0.4308270983716552 1.3448263079296447 0.21951737095219806
v 0.592982629047802 1.1650755174876344 0.3021397406079694
v 0.6970928884398324 0.9385763079296447 0.3551865673216753
v 0.7329668389796246 0.6875 0.3734652580956038
v 0.6970928884398325 0.43642369207035525 0.35518656732167536
v 0.592982629047802 0.20992448251236567 0.3021397406079694
v 0.4308270983716553 0.03017369207035525 0.2195173709521981
v 0.22649920955798974 -0.08523341948981222 0.1154071115601675
v 0.25107630792964486 1.4602334194898123 0.03976658051018771
v 0.47757551748763455 1.3448263079296447 0.07564053104997978
v 0.6573263079296449 1.1650755174876344 0.10411025939203061
v 0.7727334194898123 0.9385763079296447 0.12238895016595905
v 0.8125000000000001 0.6875 0.12868735776368576
v 0.7727334194898124 0.43642369207035525 0.12238895016595906
v 0.6573263079296449 0.20992448251236567 0.10411025939203061
v 0.4775755174876346 0.03017369207035525 0.0756405310499798
v 0.25107630792964497 -0.08523341948981222 0.03976658051018772
v 0.2510763079296448 1.4602334194898123 -0.03976658051018778
v 0.4775755174876345 1.3448263079296447 -0.07564053104997986
v 0.6573263079296449 1.1650755174876344 -0.10411025939203071
v 0.7727334194898122 0.9385763079296447 -0.12238895016595916
v 0.8125 0.6875 -0.1286873577636859
v 0.7727334194898123 0.43642369207035525 -0.12238895016595919
v 0.6573263079296449 0.20992448251236567 -0.10411025939203071
v 0.47757551748763455 0.03017369207035525 -0.07564053104997988
v 0.2510763079296449 -0.08523341948981222 -0.03976658051018779
v 0.2264992095579897 1.4602334194898123 -0.11540711156016746
v 0.4308270983716553 1.3448263079296447 -0.21951737095219806
v 0.592982629047802 1.1650755174876344 -0.30213974060796933
v 0.6970928884398325 0.9385763079296447 -0.35518656732167525
v 0.7329668389796247 0.6875 -0.3734652580956037
v 0.6970928884398326 0.43642369207035525 -0.3551865673216753
v 0.592982629047802 0.20992448251236567 -0.30213974060796933
v 0.43082709837165534 0.03017369207035525 -0.2195173709521981
v 0.22649920955798977 -0.08523341948981222 -0.1154071115601675
v 0.17975079044201042 1.4602334194898123 -0.17975079044201034
v 0.3419063211181573 1.3448263079296447 -0.3419063211181571
v 0.470593678881843 1.1650755174876344 -0.4705936788818428
v 0.5532160485376142 0.9385763079296447 -0.5532160485376141
v 0.5816857768796652 0.6875 -0.5816857768796649
v 0.5532160485376143 0.43642369207035525 -0.5532160485376141
v 0.470593678881843 0.20992448251236567 -0.4705936788818428
v 0.3419063211181573 0.03017369207035525 -0.3419063211181571
v 0.1797507904420105 -0.08523341948981222 -0.17975079044201042
v 0.11540711156016757 1.4602334194898123 -0.22649920955798958
v 0.2195173709521982 1.3448263079296447 -0.4308270983716551
v 0.30213974060796955 1.1650755174876344 -0.5929826290478019
v 0.3551865673216755 0.9385763079296447 -0.6970928884398323
v 0.37346525809560394 0.6875 -0.7329668389796244
v 0.35518656732167553 0.43642369207035525 -0.6970928884398324
v 0.30213974060796955 0.20992448251236567 -0.5929826290478019
v 0.21951737095219823 0.03017369207035525 -0.43082709837165517
v 0.11540711156016761 -0.08523341948981222 -0.2264992095579897
v 0.03976658051018783 1.4602334194898123 -0.2510763079296447
v 0.0756405310499799 1.3448263079296447 -0.4775755174876344
v 0.10411025939203074 1.1650755174876344 -0.6573263079296447
v 0.12238895016595919 0.9385763079296447 -0.7727334194898121
v 0.1286873577636859 0.6875 -0.8124999999999999
v 0.12238895016595921 0.43642369207035525 -0.7727334194898122
v 0.10411025939203074 0.20992448251236567 -0.6573263079296447
v 0.07564053104997992 0.03017369207035525 -0.47757551748763444
v 0.039766580510187846 -0.08523341948981222 -0.2510763079296448
v -0.03976658051018759 1.4602334194898123 -0.25107630792964475
v -0.07564053104997961 1.3448263079296447 -0.47757551748763444
v -0.1041102593920304 1.1650755174876344 -0.6573263079296447
v -0.12238895016595883 0.9385763079296447 -0.7727334194898122
v -0.12868735776368553 0.6875 -0.8125
v -0.12238895016595884 0.43642369207035525 -0.7727334194898123
v -0.1041102593920304 0.20992448251236567 -0.6573263079296447
v -0.07564053104997963 0.03017369207035525 -0.4775755174876345
v -0.0397665805101876 -0.08523341948981222 -0.25107630792964486
v -0.11540711156016725 1.4602334194898123 -0.2264992095579897
v -0.21951737095219773 1.3448263079296447 -0.4308270983716553
v -0.30213974060796894 1.1650755174876344 -0.5929826290478021
v -0.35518656732167475 0.9385763079296447 -0.6970928884398326
v -0.3734652580956032 0.6875 -0.7329668389796247
v -0.3551865673216748 0.43642369207035525 -0.6970928884398326
v -0.30213974060796894 0.20992448251236567 -0.5929826290478021
v -0.21951737095219775 0.03017369207035525 -0.43082709837165534
v -0.1154071115601673 -0.08523341948981222 -0.22649920955798977
v -0.17975079044201023 1.4602334194898123 -0.1797507904420104
v -0.341906321118157 1.3448263079296447 -0.3419063211181572
v -0.47059367888184267 1.1650755174876344 -0.47059367888184295
v -0.553216048537614 0.9385763079296447 -0.5532160485376142
v -0.5816857768796648 0.6875 -0.581685776879665
v -0.553216048537614 0.43642369207035525 -0.5532160485376143
v -0.47059367888184267 0.20992448251236567 -0.47059367888184295
v -0.341906321118157 0.03017369207035525 -0.3419063211181572
v -0.1797507904420103 -0.08523341948981222 -0.17975079044201048
v -0.22649920955798947 1.4602334194898123 -0.11540711156016752
v -0.430827098371655 1.3448263079296447 -0.21951737095219817
v -0.5929826290478017 1.1650755174876344 -0.3021397406079695
v -0.6970928884398322 0.9385763079296447 -0.3551865673216754
v -0.7329668389796243 0.6875 -0.3734652580956039
v -0.6970928884398323 0.43642369207035525 -0.3551865673216755
v -0.5929826290478017 0.20992448251236567 -0.3021397406079695
v -0.43082709837165506 0.03017369207035525 -0.2195173709521982
v -0.22649920955798958 -0.08523341948981222 -0.11540711156016756
v -0.2510763079296446 1.4602334194898123 -0.03976658051018778
v -0.47757551748763427 1.3448263079296447 -0.07564053104997986
v -0.6573263079296446 1.1650755174876344 -0.10411025939203071
v -0.772733419489812 0.9385763079296447 -0.12238895016595916
v -0.8124999999999998 0.6875 -0.1286873577636859
v -0.7727334194898121 0.43642369207035525 -0.12238895016595919
v -0.6573263079296446 0.20992448251236567 -0.10411025939203071
v -0.4775755174876343 0.03017369207035525 -0.07564053104997988
v -0.2510763079296447 -0.08523341948981222 -0.03976658051018779
v -0.25107630792964464 1.4602334194898123 0.039766580510187645
v -0.4775755174876343 1.3448263079296447 0.07564053104997966
v -0.6573263079296446 1.1650755174876344 0.10411025939203045
v -0.7727334194898121 0.9385763079296447 0.12238895016595885
v -0.8124999999999999 0.6875 0.12868735776368553
v -0.7727334194898122 0.43642369207035525 0.12238895016595887
v -0.6573263079296446 0.20992448251236567 0.10411025939203045
v -0.4775755174876344 0.03017369207035525 0.07564053104997967
v -0.25107630792964475 -0.08523341948981222 0.03976658051018766
v -0.22649920955798952 1.4602334194898123 0.11540711156016742
v -0.43082709837165506 1.3448263079296447 0.21951737095219798
v -0.5929826290478017 1.1650755174876344 0.3021397406079693
v -0.6970928884398323 0.9385763079296447 0.3551865673216752
v -0.7329668389796244 0.6875 0.37346525809560366
v -0.6970928884398324 0.43642369207035525 0.35518656732167525
v -0.5929826290478017 0.20992448251236567 0.3021397406079693
v -0.4308270983716551 0.03017369207035525 0.219517370952198
v -0.2264992095579896 -0.08523341948981222 0.11540711156016746
v -0.17975079044201028 1.4602334194898123 0.17975079044201026
v -0.3419063211181571 1.3448263079296447 0.34190632111815705
v -0.47059367888184284 1.1650755174876344 0.4705936788818427
v -0.5532160485376141 0.9385763079296447 0.553216048537614
v -0.5816857768796649 0.6875 0.5816857768796648
v -0.5532160485376142 0.43642369207035525 0.5532160485376141
v -0.47059367888184284 0.20992448251236567 0.4705936788818427
v -0.3419063211181571 0.03017369207035525 0.34190632111815705
v -0.17975079044201037 -0.08523341948981222 0.17975079044201034
v -0.11540711156016743 1.4602334194898123 0.22649920955798952
v -0.2195173709521981 1.3448263079296447 0.4308270983716551
v -0.3021397406079694 1.1650755174876344 0.5929826290478019
v -0.35518656732167536 0.9385763079296447 0.6970928884398323
v -0.3734652580956038 0.6875 0.7329668389796244
v -0.3551865673216754 0.43642369207035525 0.6970928884398324
v -0.3021397406079694 0.20992448251236567 0.5929826290478019
v -0.21951737095219812 0.03017369207035525 0.43082709837165517
v -0.11540711156016747 -0.08523341948981222 0.22649920955798963
v -0.039766580510187687 1.4602334194898123 0.2510763079296447
v -0.07564053104997981 1.3448263079296447 0.4775755174876344
v -0.10411025939203067 1.1650755174876344 0.6573263079296447
v -0.12238895016595913 0.9385763079296447 0.7727334194898121
v -0.12868735776368584 0.6875 0.8124999999999999
v -0.12238895016595915 0.43642369207035525 0.7727334194898122
v -0.10411025939203067 0.20992448251236567 0.6573263079296447
v -0.07564053104997982 0.03017369207035525 0.47757551748763444
v -0.03976658051018771 -0.08523341948981222 0.2510763079296448
vt 0.4184553785673243 0.9201610708760493
vt 0.45598243396946203 0.9214982131454275
vt 0.509902040236849 0.9375429815157238
vt 0.4184553785673243 0.9201610708760493
vt 0.32813442286986866 0.8515294033313067
vt 0.4014687374594882 0.8525974233378619
vt 0.45598243396946203 0.9214982131454275
vt 0.32813442286986866 0.8515294033313067
vt 0.2518944374718886 0.7344761721200322
vt 0.35444782462622276 0.7320438081916276
vt 0.4014687374594882 0.8525974233378619
vt 0.2518944374718886 0.7344761721200322
vt 0.20256916932208258 0.5822626002489
vt 0.32352194585222804 0.5731669213520527
vt 0.35444782462622276 0.7320438081916276
vt 0.20256916932208258 0.5822626002489
vt 0.18882203176209839 0.417097633121299
vt 0.3148308457913907 0.40055993014112035
vt 0.32352194585222804 0.5731669213520527
vt 0.18882203176209839 0.417097633121299
vt 0.21209196882604658 0.26424981386013746
vt 0.3295238877702122 0.24295240572322097
vt 0.3148308457913907 0.40055993014112035
vt 0.21209196882604658 0.26424981386013746
vt 0.26650443218436304 0.1446824483475525
vt 0.36353126176905853 0.12358824024517756
vt 0.3295238877702122 0.24295240572322097
vt 0.26650443218436304 0.1446824483475525
vt 0.3416160883226346 0.07032778360178904
vt 0.40968676963202383 0.05426220157659367
vt 0.36353126176905853 0.12358824024517756
vt 0.3416160883226346 0.07032778360178904
vt 0.42601542873985876 0.043738292916037924
vt 0.46048803772206326 0.03553050825091919
vt 0.40968676963202383 0.05426220157659367
vt 0.46048803772206326 0.03553050825091919
vt 0.42601542873985876 0.043738292916037924
vt 0.5099020402368488 0.060757241766415504
vt 0.45598243396946203 0.9214982131454275
vt 0.49980975910401004 0.9220921370112966
vt 0.509902040236849 0.9375429815157238
vt 0.45598243396946203 0.9214982131454275
vt 0.4014687374594882 0.8525974233378619
vt 0.4894999254221004 0.8530798926958809
vt 0.49980975910401004 0.9220921370112966
vt 0.4014687374594882 0.8525974233378619
vt 0.35444782462622276 0.7320438081916276
vt 0.48051996512454953 0.730928974229412
vt 0.4894999254221004 0.8530798926958809
vt 0.35444782462622276 0.7320438081916276
vt 0.32352194585222804 0.5731669213520527
vt 0.4745692144683743 0.5689583358541936
vt 0.48051996512454953 0.730928974229412
vt 0.32352194585222804 0.5731669213520527
vt 0.3148308457913907 0.40055993014112035
vt 0.47289045272669283 0.3928875288364322
vt 0.4745692144683743 0.5689583358541936
vt 0.3148308457913907 0.40055993014112035
vt 0.3295238877702122 0.24295240572322097
vt 0.47572689303040194 0.23311615835525257
vt 0.47289045272669283 0.3928875288364322
vt 0.3295238877702122 0.24295240572322097
vt 0.36353126176905853 0.12358824024517756
vt 0.48226105130783736 0.11394701626093628
vt 0.47572689303040194 0.23311615835525257
vt 0.36353126176905853 0.12358824024517756
vt 0.40968676963202383 0.05426220157659367
vt 0.49106106160741836 0.04702311563808559
vt 0.48226105130783736 0.11394701626093628
vt 0.40968676963202383 0.05426220157659367
vt 0.46048803772206326 0.03553050825091919
vt 0.5006570685954712 0.031889928403916024
vt 0.49106106160741836 0.04702311563808559
vt 0.5006570685954712 0.031889928403916024
vt 0.46048803772206326 0.03553050825091919
vt 0.5099020402368488 0.060757241766415504
vt 0.49980975910401004 0.9220921370112966
vt 0.5448332213189719 0.9218612999427196
vt 0.509902040236849 0.9375429815157238
vt 0.49980975910401004 0.9220921370112966
vt 0.4894999254221004 0.8530798926958809
vt 0.5803738603744089 0.8528917745220517
vt 0.5448332213189719 0.9218612999427196
vt 0.4894999254221004 0.8530798926958809
vt 0.48051996512454953 0.730928974229412
vt 0.6112125683174787 0.7313648577816387
vt 0.5803738603744089 0.8528917745220517
vt 0.48051996512454953 0.730928974229412
vt 0.4745692144683743 0.5689583358541936
vt 0.631588478472378 0.5706068285305725
vt 0.6112125683174787 0.7313648577816387
vt 0.4745692144683743 0.5689583358541936
vt 0.47289045272669283 0.3928875288364322
vt 0.6373280930466187 0.395894329333388
vt 0.631588478472378 0.5706068285305725
vt 0.47289045272669283 0.3928875288364322
vt 0.47572689303040194 0.23311615835525257
vt 0.6276282176530135 0.23696763054243808
vt 0.6373280930466187 0.395894329333388
vt 0.47572689303040194 0.23311615835525257
vt 0.48226105130783736 0.11394701626093628
vt 0.6052419037372612 0.11771457933093021
vt 0.6276282176530135 0.23696763054243808
vt 0.48226105130783736 0.11394701626093628
vt 0.49106106160741836 0.04702311563808559
vt 0.575001508871448 0.04984432611615697
vt 0.6052419037372612 0.11771457933093021
vt 0.49106106160741836 0.04702311563808559
vt 0.5006570685954712 0.031889928403916024
vt 0.5419058893587043 0.03330451962182224
vt 0.575001508871448 0.04984432611615697
vt 0.5419058893587043 0.03330451962182224
vt 0.5006570685954712 0.031889928403916024
vt 0.5099020402368488 0.060757241766415504
vt 0.5448332213189719 0.9218612999427196
vt 0.5857394097697262 0.9208376386411321
vt 0.509902040236849 0.9375429815157238
vt 0.5448332213189719 0.9218612999427196
vt 0.5803738603744089 0.8528917745220517
vt 0.6615332122249167 0.8520666853786558
vt 0.5857394097697262 0.9208376386411321
vt 0.5803738603744089 0.8528917745220517
vt 0.6112125683174787 0.7313648577816387
vt 0.7262108765474595 0.7332585922844239
vt 0.6615332122249167 0.8520666853786558
vt 0.6112125683174787 0.7313648577816387
vt 0.631588478472378 0.5706068285305725
vt 0.7684019278287251 0.5777243014408846
vt 0.7262108765474595 0.7332585922844239
vt 0.631588478472378 0.5706068285305725
vt 0.6373280930466187 0.395894329333388
vt 0.78020965834884 0.40885364294172155
vt 0.7684019278287251 0.5777243014408846
vt 0.6373280930466187 0.395894329333388
vt 0.6276282176530135 0.23696763054243808
vt 0.7602351145270485 0.2536167557361959
vt 0.78020965834884 0.40885364294172155
vt 0.6276282176530135 0.23696763054243808
vt 0.6052419037372612 0.11771457933093021
vt 0.713766454737095 0.13411311967069772
vt 0.7602351145270485 0.2536167557361959
vt 0.6052419037372612 0.11771457933093021
vt 0.575001508871448 0.04984432611615697
vt 0.6501631529592262 0.06223874373340088
vt 0.713766454737095 0.13411311967069772
vt 0.575001508871448 0.04984432611615697
vt 0.5419058893587043 0.03330451962182224
vt 0.5794356454565539 0.03958332375980067
vt 0.6501631529592262 0.06223874373340088
vt 0.5794356454565539 0.03958332375980067
vt 0.5419058893587043 0.03330451962182224
vt 0.5099020402368488 0.060757241766415504
vt 0.5857394097697262 0.9208376386411321
vt 0.6179247587619392 0.9191590501796012
vt 0.509902040236849 0.9375429815157238
vt 0.5857394097697262 0.9208376386411321
vt 0.6615332122249167 0.8520666853786558
vt 0.7227673174938531 0.8507451575153774
vt 0.6179247587619392 0.9191590501796012
vt 0.6615332122249167 0.8520666853786558
vt 0.7262108765474595 0.7332585922844239
vt 0.8098687226414927 0.7362317890248808
vt 0.7227673174938531 0.8507451575153774
vt 0.7262108765474595 0.7332585922844239
vt 0.7684019278287251 0.5777243014408846
vt 0.8655538947258212 0.5887547922317223
vt 0.8098687226414927 0.7362317890248808
vt 0.7684019278287251 0.5777243014408846
vt 0.78020965834884 0.40885364294172155
vt 0.8809813889786247 0.4288650059567688
vt 0.8655538947258212 0.5887547922317223
vt 0.78020965834884 0.40885364294172155
vt 0.7602351145270485 0.2536167557361959
vt 0.854843624977041 0.2794839929663341
vt 0.8809813889786247 0.4288650059567688
vt 0.7602351145270485 0.2536167557361959
vt 0.713766454737095 0.13411311967069772
vt 0.7932749141357063 0.1599580316144975
vt 0.854843624977041 0.2794839929663341
vt 0.713766454737095 0.13411311967069772
vt 0.6501631529592262 0.06223874373340088
vt 0.7072329809729951 0.08216060829164218
vt 0.7932749141357063 0.1599580316144975
vt 0.6501631529592262 0.06223874373340088
vt 0.5794356454565539 0.03958332375980067
vt 0.6090664908148684 0.04989945472404189
vt 0.7072329809729951 0.08216060829164218
vt 0.6090664908148684 0.04989945472404189
vt 0.5794356454565539 0.03958332375980067
vt 0.5099020402368488 0.060757241766415504
vt 0.6179247587619392 0.9191590501796012
vt 0.6381909436677573 0.9170386560593842
vt 0.509902040236849 0.9375429815157238
vt 0.6179247587619392 0.9191590501796012
vt 0.7227673174938531 0.8507451575153774
vt 0.7581754088542947 0.8491293690814337
vt 0.6381909436677573 0.9170386560593842
vt 0.7227673174938531 0.8507451575153774
vt 0.8098687226414927 0.7362317890248808
vt 0.8546359100409471 0.7397701315118494
vt 0.7581754088542947 0.8491293690814337
vt 0.8098687226414927 0.7362317890248808
vt 0.8655538947258212 0.5887547922317223
vt 0.9148360959676951 0.6016576320788212
vt 0.8546359100409471 0.7397701315118494
vt 0.8655538947258212 0.5887547922317223
vt 0.8809813889786247 0.4288650059567688
vt 0.9313171918342873 0.4521617407922722
vt 0.9148360959676951 0.6016576320788212
vt 0.8809813889786247 0.4288650059567688
vt 0.854843624977041 0.2794839929663341
vt 0.9033444212021826 0.30984243487299346
vt 0.9313171918342873 0.4521617407922722
vt 0.854843624977041 0.2794839929663341
vt 0.7932749141357063 0.1599580316144975
vt 0.8364777943652044 0.1908740884218023
vt 0.9033444212021826 0.30984243487299346
vt 0.7932749141357063 0.1599580316144975
vt 0.7072329809729951 0.08216060829164218
vt 0.7406694682494943 0.1066362303609023
vt 0.8364777943652044 0.1908740884218023
vt 0.7072329809729951 0.08216060829164218
vt 0.6090664908148684 0.04989945472404189
vt 0.6278525137547193 0.06296682850056667
vt 0.7406694682494943 0.1066362303609023
vt 0.6278525137547193 0.06296682850056667
vt 0.6090664908148684 0.04989945472404189
vt 0.5099020402368488 0.060757241766415504
vt 0.6381909436677573 0.9170386560593842
vt 0.6450425824431536 0.9147230820833565
vt 0.509902040236849 0.9375429815157238
vt 0.6381909436677573 0.9170386560593842
vt 0.7581754088542947 0.8491293690814337
vt 0.7664180911881313 0.8474296946941748
vt 0.6450425824431536 0.9147230820833565
vt 0.7581754088542947 0.8491293690814337
vt 0.8546359100409471 0.7397701315118494
vt 0.8606714247595124 0.7433819011470146
vt 0.7664180911881313 0.8474296946941748
vt 0.8546359100409471 0.7397701315118494
vt 0.9148360959676951 0.6016576320788212
vt 0.9180567947242955 0.6145834074207084
vt 0.8606714247595124 0.7433819011470146
vt 0.9148360959676951 0.6016576320788212
vt 0.9313171918342873 0.4521617407922722
vt 0.9335798530007056 0.47538031282026005
vt 0.9180567947242955 0.6145834074207084
vt 0.9313171918342873 0.4521617407922722
vt 0.9033444212021826 0.30984243487299346
vt 0.9071858160552149 0.34036396261575586
vt 0.9335798530007056 0.47538031282026005
vt 0.9033444212021826 0.30984243487299346
vt 0.8364777943652044 0.1908740884218023
vt 0.8431481709120148 0.22261083849409635
vt 0.9071858160552149 0.34036396261575586
vt 0.8364777943652044 0.1908740884218023
vt 0.7406694682494943 0.1066362303609023
vt 0.7490001596093432 0.13252349877883474
vt 0.8431481709120148 0.22261083849409635
vt 0.7406694682494943 0.1066362303609023
vt 0.6278525137547193 0.06296682850056667
vt 0.6343617451141588 0.07728318765247666
vt 0.7490001596093432 0.13252349877883474
vt 0.6343617451141588 0.07728318765247666
vt 0.6278525137547193 0.06296682850056667
vt 0.5099020402368488 0.060757241766415504
vt 0.6450425824431536 0.9147230820833565
vt 0.6385969513130325 0.9124536720198565
vt 0.509902040236849 0.9375429815157238
vt 0.6450425824431536 0.9147230820833565
vt 0.7664180911881313 0.8474296946941748
vt 0.749675413958975 0.8458260114841263
vt 0.6385969513130325 0.9124536720198565
vt 0.7664180911881313 0.8474296946941748
vt 0.8606714247595124 0.7433819011470146
vt 0.8331447237243486 0.7466905206590864
vt 0.749675413958975 0.8458260114841263
vt 0.8606714247595124 0.7433819011470146
vt 0.9180567947242955 0.6145834074207084
vt 0.8828190800597093 0.6262130552450316
vt 0.8331447237243486 0.7466905206590864
vt 0.9180567947242955 0.6145834074207084
vt 0.9335798530007056 0.47538031282026005
vt 0.8961110074263245 0.4961691285025688
vt 0.8828190800597093 0.6262130552450316
vt 0.9335798530007056 0.47538031282026005
vt 0.9071858160552149 0.34036396261575586
vt 0.8734740166092358 0.3679187817578119
vt 0.8961110074263245 0.4961691285025688
vt 0.9071858160552149 0.34036396261575586
vt 0.8431481709120148 0.22261083849409635
vt 0.8178053479924634 0.2518439405694124
vt 0.8734740166092358 0.3679187817578119
vt 0.8431481709120148 0.22261083849409635
vt 0.7490001596093432 0.13252349877883474
vt 0.7339877707920306 0.15708234470182103
vt 0.8178053479924634 0.2518439405694124
vt 0.7490001596093432 0.13252349877883474
vt 0.6343617451141588 0.07728318765247666
vt 0.6286219601991647 0.0913611087408781
vt 0.7339877707920306 0.15708234470182103
vt 0.6286219601991647 0.0913611087408781
vt 0.6343617451141588 0.07728318765247666
vt 0.5099020402368488 0.060757241766415504
vt 0.6385969513130325 0.9124536720198565
vt 0.6202482885316141 0.9104395440784068
vt 0.509902040236849 0.9375429815157238
vt 0.6385969513130325 0.9124536720198565
vt 0.749675413958975 0.8458260114841263
vt 0.7121768796517327 0.8444515009738124
vt 0.6202482885316141 0.9104395440784068
vt 0.749675413958975 0.8458260114841263
vt 0.8331447237243486 0.7466905206590864
vt 0.7793298207430066 0.7494528132745111
vt 0.7121768796517327 0.8444515009738124
vt 0.8331447237243486 0.7466905206590864
vt 0.8828190800597093 0.6262130552450316
vt 0.8185366737126085 0.6357715284145009
vt 0.7793298207430066 0.7494528132745111
vt 0.8828190800597093 0.6262130552450316
vt 0.8961110074263245 0.4961691285025688
vt 0.8289338562301967 0.5131840592709558
vt 0.8185366737126085 0.6357715284145009
vt 0.8961110074263245 0.4961691285025688
vt 0.8734740166092358 0.3679187817578119
vt 0.8112032167659478 0.39063310101291426
vt 0.8289338562301967 0.5131840592709558
vt 0.8734740166092358 0.3679187817578119
vt 0.8178053479924634 0.2518439405694124
vt 0.7671097258727162 0.2763681994631205
vt 0.8112032167659478 0.39063310101291426
vt 0.8178053479924634 0.2518439405694124
vt 0.7339877707920306 0.15708234470182103
vt 0.6993738528133262 0.17823566605570595
vt 0.7671097258727162 0.2763681994631205
vt 0.7339877707920306 0.15708234470182103
vt 0.6286219601991647 0.0913611087408781
vt 0.6118454161708762 0.10389456743807357
vt 0.6993738528133262 0.17823566605570595
vt 0.6118454161708762 0.10389456743807357
vt 0.6286219601991647 0.0913611087408781
vt 0.5099020402368488 0.060757241766415504
vt 0.6202482885316141 0.9104395440784068
vt 0.592258930719546 0.9088443408387803
vt 0.509902040236849 0.9375429815157238
vt 0.6202482885316141 0.9104395440784068
vt 0.7121768796517327 0.8444515009738124
vt 0.6589673588602083 0.84339391879073
vt 0.592258930719546 0.9088443408387803
vt 0.7121768796517327 0.8444515009738124
vt 0.7793298207430066 0.7494528132745111
vt 0.7066442522316521 0.7515336065264173
vt 0.6589673588602083 0.84339391879073
vt 0.7793298207430066 0.7494528132745111
vt 0.8185366737126085 0.6357715284145009
vt 0.734080115112822 0.6428830058206527
vt 0.7066442522316521 0.7515336065264173
vt 0.8185366737126085 0.6357715284145009
vt 0.8289338562301967 0.5131840592709558
vt 0.7413070800630082 0.5258014934668587
vt 0.734080115112822 0.6428830058206527
vt 0.8289338562301967 0.5131840592709558
vt 0.8112032167659478 0.39063310101291426
vt 0.7289704879336549 0.4075717807746483
vt 0.7413070800630082 0.5258014934668587
vt 0.8112032167659478 0.39063310101291426
vt 0.7671097258727162 0.2763681994631205
vt 0.6980331372737849 0.2949134424347498
vt 0.7289704879336549 0.4075717807746483
vt 0.7671097258727162 0.2763681994631205
vt 0.6993738528133262 0.17823566605570595
vt 0.6497777290134772 0.19457735745755134
vt 0.6980331372737849 0.2949134424347498
vt 0.6993738528133262 0.17823566605570595
vt 0.6118454161708762 0.10389456743807357
vt 0.5860763125634103 0.11384738527117244
vt 0.6497777290134772 0.19457735745755134
vt 0.5860763125634103 0.11384738527117244
vt 0.6118454161708762 0.10389456743807357
vt 0.5099020402368488 0.060757241766415504
vt 0.592258930719546 0.9088443408387803
vt 0.5574017660254298 0.9077834905644988
vt 0.509902040236849 0.9375429815157238
vt 0.592258930719546 0.9088443408387803
vt 0.6589673588602083 0.84339391879073
vt 0.5951616539762266 0.8427052345247468
vt 0.5574017660254298 0.9077834905644988
vt 0.6589673588602083 0.84339391879073
vt 0.7066442522316521 0.7515336065264173
vt 0.6217665487609136 0.7528683057742668
vt 0.5951616539762266 0.8427052345247468
vt 0.7066442522316521 0.7515336065264173
vt 0.734080115112822 0.6428830058206527
vt 0.6369345047859707 0.6474050462324488
vt 0.6217665487609136 0.7528683057742668
vt 0.734080115112822 0.6428830058206527
vt 0.7413070800630082 0.5258014934668587
vt 0.6409128638757227 0.5338062618276438
vt 0.6369345047859707 0.6474050462324488
vt 0.7413070800630082 0.5258014934668587
vt 0.7289704879336549 0.4075717807746483
vt 0.6341174294894334 0.41836022135936146
vt 0.6409128638757227 0.5338062618276438
vt 0.7289704879336549 0.4075717807746483
vt 0.6980331372737849 0.2949134424347498
vt 0.6169846055468453 0.3068415594890771
vt 0.6341174294894334 0.41836022135936146
vt 0.6980331372737849 0.2949134424347498
vt 0.6497777290134772 0.19457735745755134
vt 0.5899972394487103 0.20524979005404664
vt 0.6169846055468453 0.3068415594890771
vt 0.6497777290134772 0.19457735745755134
vt 0.5860763125634103 0.11384738527117244
vt 0.553870062167496 0.12047914084324518
vt 0.5899972394487103 0.20524979005404664
vt 0.553870062167496 0.12047914084324518
vt 0.5860763125634103 0.11384738527117244
vt 0.5099020402368488 0.060757241766415504
vt 0.5574017660254298 0.9077834905644988
vt 0.5187072981632159 0.9073270040948616
vt 0.509902040236849 0.9375429815157238
vt 0.5574017660254298 0.9077834905644988
vt 0.5951616539762266 0.8427052345247468
vt 0.5256507147188614 0.8424124020552637
vt 0.5187072981632159 0.9073270040948616
vt 0.5951616539762266 0.8427052345247468
vt 0.6217665487609136 0.7528683057742668
vt 0.530513271816153 0.7534310635234542
vt 0.5256507147188614 0.8424124020552637
vt 0.6217665487609136 0.7528683057742668
vt 0.6369345047859707 0.6474050462324488
vt 0.5332746224441712 0.6493025370156233
vt 0.530513271816153 0.7534310635234542
vt 0.6369345047859707 0.6474050462324488
vt 0.6409128638757227 0.5338062618276438
vt 0.5339975860621535 0.5371608900744809
vt 0.5332746224441712 0.6493025370156233
vt 0.6409128638757227 0.5338062618276438
vt 0.6341174294894334 0.41836022135936146
vt 0.5327623649552122 0.4228912093753333
vt 0.5339975860621535 0.5371608900744809
vt 0.6341174294894334 0.41836022135936146
vt 0.6169846055468453 0.3068415594890771
vt 0.5296410757977212 0.3118785242100691
vt 0.5327623649552122 0.4228912093753333
vt 0.6169846055468453 0.3068415594890771
vt 0.5899972394487103 0.20524979005404664
vt 0.524703987209971 0.20979518580710887
vt 0.5296410757977212 0.3118785242100691
vt 0.5899972394487103 0.20524979005404664
vt 0.553870062167496 0.12047914084324518
vt 0.5180553359515048 0.12333597523998563
vt 0.524703987209971 0.20979518580710887
vt 0.5180553359515048 0.12333597523998563
vt 0.553870062167496 0.12047914084324518
vt 0.5099020402368488 0.060757241766415504
vt 0.5187072981632159 0.9073270040948616
vt 0.47931127410131014 0.9075033784246407
vt 0.509902040236849 0.9375429815157238
vt 0.5187072981632159 0.9073270040948616
vt 0.5256507147188614 0.8424124020552637
vt 0.45511338632012466 0.8425252970571826
vt 0.47931127410131014 0.9075033784246407
vt 0.5256507147188614 0.8424124020552637
vt 0.530513271816153 0.7534310635234542
vt 0.438127554161096 0.7532144390739087
vt 0.45511338632012466 0.8425252970571826
vt 0.530513271816153 0.7534310635234542
vt 0.5332746224441712 0.6493025370156233
vt 0.428467009451328 0.648572769661215
vt 0.438127554161096 0.7532144390739087
vt 0.5332746224441712 0.6493025370156233
vt 0.5339975860621535 0.5371608900744809
vt 0.42593597902576547 0.5358710103405239
vt 0.428467009451328 0.648572769661215
vt 0.5339975860621535 0.5371608900744809
vt 0.5327623649552122 0.4228912093753333
vt 0.4302599362418268 0.4211483255110081
vt 0.42593597902576547 0.5358710103405239
vt 0.5327623649552122 0.4228912093753333
vt 0.5296410757977212 0.3118785242100691
vt 0.4411767158811803 0.3099390895348899
vt 0.4302599362418268 0.4211483255110081
vt 0.5296410757977212 0.3118785242100691
vt 0.524703987209971 0.20979518580710887
vt 0.4584166706199144 0.20804228530090396
vt 0.4411767158811803 0.3099390895348899
vt 0.524703987209971 0.20979518580710887
vt 0.5180553359515048 0.12333597523998563
vt 0.4815799484939972 0.12223194319447017
vt 0.4584166706199144 0.20804228530090396
vt 0.4815799484939972 0.12223194319447017
vt 0.5180553359515048 0.12333597523998563
vt 0.5099020402368488 0.060757241766415504
vt 0.47931127410131014 0.9075033784246407
vt 0.4423656710175011 0.9083017182921337
vt 0.509902040236849 0.9375429815157238
vt 0.47931127410131014 0.9075033784246407
vt 0.45511338632012466 0.8425252970571826
vt 0.3881835034751828 0.8430402223750583
vt 0.4423656710175011 0.9083017182921337
vt 0.45511338632012466 0.8425252970571826
vt 0.438127554161096 0.7532144390739087
vt 0.34974175511469824 0.7522210596122756
vt 0.3881835034751828 0.8430402223750583
vt 0.438127554161096 0.7532144390739087
vt 0.428467009451328 0.648572769661215
vt 0.32772610189376883 0.6452159689012278
vt 0.34974175511469824 0.7522210596122756
vt 0.428467009451328 0.648572769661215
vt 0.42593597902576547 0.5358710103405239
vt 0.3219396855207356 0.5299330110436843
vt 0.32772610189376883 0.6452159689012278
vt 0.42593597902576547 0.5358710103405239
vt 0.4302599362418268 0.4211483255110081
vt 0.33182044366159974 0.4131359386728206
vt 0.3219396855207356 0.5299330110436843
vt 0.4302599362418268 0.4211483255110081
vt 0.4411767158811803 0.3099390895348899
vt 0.35666756181030923 0.30105398513463855
vt 0.33182044366159974 0.4131359386728206
vt 0.4411767158811803 0.3099390895348899
vt 0.4584166706199144 0.20804228530090396
vt 0.39562005281912194 0.20005548141056262
vt 0.35666756181030923 0.30105398513463855
vt 0.4584166706199144 0.20804228530090396
vt 0.4815799484939972 0.12223194319447017
vt 0.44741087028030635 0.11723822587150301
vt 0.39562005281912194 0.20005548141056262
vt 0.44741087028030635 0.11723822587150301
vt 0.4815799484939972 0.12223194319447017
vt 0.5099020402368488 0.060757241766415504
vt 0.4423656710175011 0.9083017182921337
vt 0.41096172165041656 0.9096708867437859
vt 0.509902040236849 0.9375429815157238
vt 0.4423656710175011 0.9083017182921337
vt 0.3881835034751828 0.8430402223750583
vt 0.3296438527722805 0.8439385499490162
vt 0.41096172165041656 0.9096708867437859
vt 0.3881835034751828 0.8430402223750583
vt 0.34974175511469824 0.7522210596122756
vt 0.2708674383478592 0.7504668076416018
vt 0.3296438527722805 0.8439385499490162
vt 0.34974175511469824 0.7522210596122756
vt 0.32772610189376883 0.6452159689012278
vt 0.23679213840376523 0.6392464702076505
vt 0.2708674383478592 0.7504668076416018
vt 0.32772610189376883 0.6452159689012278
vt 0.3219396855207356 0.5299330110436843
vt 0.2277853543652983 0.5193538494866758
vt 0.23679213840376523 0.6392464702076505
vt 0.3219396855207356 0.5299330110436843
vt 0.33182044366159974 0.4131359386728206
vt 0.24315234403275787 0.3989057967005133
vt 0.2277853543652983 0.5193538494866758
vt 0.33182044366159974 0.4131359386728206
vt 0.35666756181030923 0.30105398513463855
vt 0.2815242998959506 0.28539781169200007
vt 0.24315234403275787 0.3989057967005133
vt 0.35666756181030923 0.30105398513463855
vt 0.39562005281912194 0.20005548141056262
vt 0.34090947773236413 0.18615458225724835
vt 0.2815242998959506 0.28539781169200007
vt 0.39562005281912194 0.20005548141056262
vt 0.44741087028030635 0.11723822587150301
vt 0.4184446216868136 0.10868748621124735
vt 0.34090947773236413 0.18615458225724835
vt 0.4184446216868136 0.10868748621124735
vt 0.44741087028030635 0.11723822587150301
vt 0.5099020402368488 0.060757241766415504
vt 0.41096172165041656 0.9096708867437859
vt 0.38801147826859084 0.9115161391463805
vt 0.509902040236849 0.9375429815157238
vt 0.41096172165041656 0.9096708867437859
vt 0.3296438527722805 0.8439385499490162
vt 0.2845241483288151 0.8451806479007418
vt 0.38801147826859084 0.9115161391463805
vt 0.3296438527722805 0.8439385499490162
vt 0.2708674383478592 0.7504668076416018
vt 0.20778382007518093 0.7479957630479473
vt 0.2845241483288151 0.8451806479007418
vt 0.2708674383478592 0.7504668076416018
vt 0.23679213840376523 0.6392464702076505
vt 0.16252447573227632 0.6307465443412872
vt 0.20778382007518093 0.7479957630479473
vt 0.23679213840376523 0.6392464702076505
vt 0.2277853543652983 0.5193538494866758
vt 0.15046535042289383 0.5042471599475123
vt 0.16252447573227632 0.6307465443412872
vt 0.2277853543652983 0.5193538494866758
vt 0.24315234403275787 0.3989057967005133
vt 0.17101576488022102 0.37868442098026267
vt 0.15046535042289383 0.5042471599475123
vt 0.24315234403275787 0.3989057967005133
vt 0.2815242998959506 0.28539781169200007
vt 0.221821450378484 0.2634187244591891
vt 0.17101576488022102 0.37868442098026267
vt 0.2815242998959506 0.28539781169200007
vt 0.34090947773236413 0.18615458225724835
vt 0.29904462880040317 0.1670023012752837
vt 0.221821450378484 0.2634187244591891
vt 0.34090947773236413 0.18615458225724835
vt 0.4184446216868136 0.10868748621124735
vt 0.3973820396795622 0.09719057229383044
vt 0.29904462880040317 0.1670023012752837
vt 0.3973820396795622 0.09719057229383044
vt 0.4184446216868136 0.10868748621124735
vt 0.5099020402368488 0.060757241766415504
vt 0.38801147826859084 0.9115161391463805
vt 0.37604258064570334 0.9136953690852114
vt 0.509902040236849 0.9375429815157238
vt 0.38801147826859084 0.9115161391463805
vt 0.2845241483288151 0.8451806479007418
vt 0.2579626946592696 0.8466960516487901
vt 0.37604258064570334 0.9136953690852114
vt 0.2845241483288151 0.8451806479007418
vt 0.20778382007518093 0.7479957630479473
vt 0.16763481826467308 0.7449071988376983
vt 0.2579626946592696 0.8466960516487901
vt 0.20778382007518093 0.7479957630479473
vt 0.16252447573227632 0.6307465443412872
vt 0.11321341981550112 0.6199695178986102
vt 0.16763481826467308 0.7449071988376983
vt 0.16252447573227632 0.6307465443412872
vt 0.15046535042289383 0.5042471599475123
vt 0.09856592716220344 0.4850202768887464
vt 0.11321341981550112 0.6199695178986102
vt 0.15046535042289383 0.5042471599475123
vt 0.17101576488022102 0.37868442098026267
vt 0.12348987855537547 0.3531145188285232
vt 0.09856592716220344 0.4850202768887464
vt 0.17101576488022102 0.37868442098026267
vt 0.221821450378484 0.2634187244591891
vt 0.18433911543246662 0.2360684091844053
vt 0.12348987855537547 0.3531145188285232
vt 0.221821450378484 0.2634187244591891
vt 0.29904462880040317 0.1670023012752837
vt 0.2747850168464012 0.14374236597046197
vt 0.18433911543246662 0.2360684091844053
vt 0.29904462880040317 0.1670023012752837
vt 0.3973820396795622 0.09719057229383044
vt 0.38652973419264147 0.08365266494474666
vt 0.2747850168464012 0.14374236597046197
vt 0.38652973419264147 0.08365266494474666
vt 0.3973820396795622 0.09719057229383044
vt 0.5099020402368488 0.060757241766415504
vt 0.37604258064570334 0.9136953690852114
vt 0.3768845817777308 0.9160187673364358
vt 0.509902040236849 0.9375429815157238
vt 0.37604258064570334 0.9136953690852114
vt 0.2579626946592696 0.8466960516487901
vt 0.2546762936221798 0.8483726288756362
vt 0.3768845817777308 0.9160187673364358
vt 0.2579626946592696 0.8466960516487901
vt 0.16763481826467308 0.7449071988376983
vt 0.15793138946269625 0.7413918518157585
vt 0.2546762936221798 0.8483726288756362
vt 0.16763481826467308 0.7449071988376983
vt 0.11321341981550112 0.6199695178986102
vt 0.09821959605908734 0.607491616055609
vt 0.15793138946269625 0.7413918518157585
vt 0.11321341981550112 0.6199695178986102
vt 0.09856592716220344 0.4850202768887464
vt 0.08196035313293165 0.46265609022379206
vt 0.09821959605908734 0.607491616055609
vt 0.09856592716220344 0.4850202768887464
vt 0.12348987855537547 0.3531145188285232
vt 0.1095789240911055 0.3236046153303799
vt 0.08196035313293165 0.46265609022379206
vt 0.12348987855537547 0.3531145188285232
vt 0.18433911543246662 0.2360684091844053
vt 0.1760420960673039 0.20510172600141552
vt 0.1095789240911055 0.3236046153303799
vt 0.18433911543246662 0.2360684091844053
vt 0.2747850168464012 0.14374236597046197
vt 0.27237646257832304 0.11814401142368403
vt 0.1760420960673039 0.20510172600141552
vt 0.2747850168464012 0.14374236597046197
vt 0.38652973419264147 0.08365266494474666
vt 0.38751322714791353 0.06926648228701504
vt 0.27237646257832304 0.11814401142368403
vt 0.38751322714791353 0.06926648228701504
vt 0.38652973419264147 0.08365266494474666
vt 0.5099020402368488 0.060757241766415504
vt 0.3768845817777308 0.9160187673364358
vt 0.39127177492054477 0.9182568300686547
vt 0.509902040236849 0.9375429815157238
vt 0.3768845817777308 0.9160187673364358
vt 0.2546762936221798 0.8483726288756362
vt 0.27793392850606313 0.8500504977441783
vt 0.39127177492054477 0.9182568300686547
vt 0.2546762936221798 0.8483726288756362
vt 0.15793138946269625 0.7413918518157585
vt 0.18509368250515199 0.7377658146413433
vt 0.27793392850606313 0.8500504977441783
vt 0.15793138946269625 0.7413918518157585
vt 0.09821959605908734 0.607491616055609
vt 0.12635554590437287 0.5943783158635985
vt 0.18509368250515199 0.7377658146413433
vt 0.09821959605908734 0.607491616055609
vt 0.08196035313293165 0.46265609022379206
vt 0.11016624596048946 0.43903328492538607
vt 0.12635554590437287 0.5943783158635985
vt 0.08196035313293165 0.46265609022379206
vt 0.1095789240911055 0.3236046153303799
vt 0.13761605347945002 0.29270195595633
vt 0.11016624596048946 0.43903328492538607
vt 0.1095789240911055 0.3236046153303799
vt 0.1760420960673039 0.20510172600141552
vt 0.2026896896392154 0.17334025678283593
vt 0.13761605347945002 0.29270195595633
vt 0.1760420960673039 0.20510172600141552
vt 0.27237646257832304 0.11814401142368403
vt 0.29461672583835385 0.09266723102190744
vt 0.2026896896392154 0.17334025678283593
vt 0.27237646257832304 0.11814401142368403
vt 0.38751322714791353 0.06926648228701504
vt 0.4009284566468952 0.05545465040368436
vt 0.29461672583835385 0.09266723102190744
vt 0.4009284566468952 0.05545465040368436
vt 0.38751322714791353 0.06926648228701504
vt 0.5099020402368488 0.060757241766415504
vt 0.39127177492054477 0.9182568300686547
vt 0.4184553785673243 0.9201610708760493
vt 0.509902040236849 0.9375429815157238
vt 0.39127177492054477 0.9182568300686547
vt 0.27793392850606313 0.8500504977441783
vt 0.32813442286986866 0.8515294033313067
vt 0.4184553785673243 0.9201610708760493
vt 0.27793392850606313 0.8500504977441783
vt 0.18509368250515199 0.7377658146413433
vt 0.2518944374718886 0.7344761721200322
vt 0.32813442286986866 0.8515294033313067
vt 0.18509368250515199 0.7377658146413433
vt 0.12635554590437287 0.5943783158635985
vt 0.20256916932208258 0.5822626002489
vt 0.2518944374718886 0.7344761721200322
vt 0.12635554590437287 0.5943783158635985
vt 0.11016624596048946 0.43903328492538607
vt 0.18882203176209839 0.417097633121299
vt 0.20256916932208258 0.5822626002489
vt 0.11016624596048946 0.43903328492538607
vt 0.13761605347945002 0.29270195595633
vt 0.21209196882604658 0.26424981386013746
vt 0.18882203176209839 0.417097633121299
vt 0.13761605347945002 0.29270195595633
vt 0.2026896896392154 0.17334025678283593
vt 0.26650443218436304 0.1446824483475525
vt 0.21209196882604658 0.26424981386013746
vt 0.2026896896392154 0.17334025678283593
vt 0.29461672583835385 0.09266723102190744
vt 0.3416160883226346 0.07032778360178904
vt 0.26650443218436304 0.1446824483475525
vt 0.29461672583835385 0.09266723102190744
vt 0.4009284566468952 0.05545465040368436
vt 0.42601542873985876 0.043738292916037924
vt 0.3416160883226346 0.07032778360178904
vt 0.42601542873985876 0.043738292916037924
vt 0.4009284566468952 0.05545465040368436
vt 0.5099020402368488 0.060757241766415504
vn 0.04834090820338489 0.9876883405951379 0.14877801734965782
vn 0.14029077970429513 0.8910065241883678 0.43177062311338943
vn 0.21850801222441069 0.7071067811865475 0.6724985119639575
vn 0.2753361580731586 0.45399049973954675 0.8473975608908426
vn 0.30521248238988885 0.15643446504023106 0.9393474323917528
vn 0.30521248238988913 -0.15643446504023067 0.9393474323917528
vn 0.27533615807315837 -0.45399049973954725 0.8473975608908426
vn 0.21850801222441066 -0.7071067811865472 0.6724985119639576
vn 0.14029077970429515 -0.891006524188368 0.4317706231133891
vn 0.04834090820338504 -0.9876883405951379 0.14877801734965812
vn 0.09194987150091008 0.9876883405951379 0.12655814072350025
vn 0.26684892042779557 0.8910065241883678 0.36728602957406864
vn 0.4156269377774534 0.7071067811865475 0.5720614028176846
vn 0.5237204946142995 0.4539904997395465 0.7208394201673424
vn 0.5805486404630471 0.15643446504023134 0.7990566526874576
vn 0.5805486404630473 -0.15643446504023084 0.7990566526874576
vn 0.5237204946142993 -0.4539904997395471 0.7208394201673423
vn 0.4156269377774538 -0.7071067811865471 0.5720614028176845
vn 0.2668489204277953 -0.8910065241883679 0.36728602957406836
vn 0.09194987150091026 -0.9876883405951379 0.12655814072350055
vn 0.12655814072350027 0.9876883405951379 0.09194987150091005
vn 0.3672860295740687 0.8910065241883678 0.26684892042779546
vn 0.5720614028176845 0.7071067811865475 0.4156269377774537
vn 0.7208394201673426 0.4539904997395466 0.5237204946142994
vn 0.7990566526874578 0.15643446504023134 0.580548640463047
vn 0.7990566526874576 -0.15643446504023112 0.5805486404630471
vn 0.7208394201673423 -0.4539904997395469 0.5237204946142995
vn 0.5720614028176844 -0.7071067811865474 0.4156269377774537
vn 0.36728602957406853 -0.891006524188368 0.26684892042779557
vn 0.12655814072350058 -0.9876883405951379 0.09194987150091026
vn 0.1487780173496578 0.9876883405951379 0.048340908203384984
vn 0.43177062311338943 0.8910065241883678 0.14029077970429524
vn 0.6724985119639574 0.7071067811865475 0.21850801222441066
vn 0.8473975608908428 0.45399049973954647 0.27533615807315903
vn 0.9393474323917526 0.15643446504023134 0.30521248238988924
vn 0.9393474323917528 -0.15643446504023087 0.3052124823898894
vn 0.8473975608908427 -0.45399049973954686 0.27533615807315853
vn 0.6724985119639576 -0.7071067811865472 0.2185080122244109
vn 0.431770623113389 -0.8910065241883679 0.14029077970429527
vn 0.1487780173496581 -0.9876883405951379 0.04834090820338508
vn 0.15643446504023073 0.9876883405951379 -1.0918536538997185e-16
vn 0.45399049973954714 0.8910065241883679 -1.8043462260634327e-16
vn 0.7071067811865477 0.7071067811865475 0
vn 0.8910065241883679 0.4539904997395467 -3.903015533129311e-16
vn 0.9876883405951379 0.1564344650402311 -4.2422724068386677e-16
vn 0.9876883405951378 -0.15643446504023067 -4.460589180719212e-16
vn 0.8910065241883677 -0.4539904997395472 0
vn 0.7071067811865479 -0.7071067811865472 -3.6086924521268664e-16
vn 0.45399049973954675 -0.8910065241883679 -3.4320704719003914e-16
vn 0.15643446504023104 -0.9876883405951378 -1.0918536538997202e-16
vn 0.14877801734965782 0.9876883405951379 -0.04834090820338482
vn 0.4317706231133894 0.8910065241883679 -0.14029077970429515
vn 0.6724985119639574 0.7071067811865476 -0.21850801222441088
vn 0.8473975608908428 0.4539904997395464 -0.2753361580731584
vn 0.9393474323917529 0.15643446504023112 -0.3052124823898887
vn 0.9393474323917529 -0.15643446504023067 -0.3052124823898888
vn 0.8473975608908425 -0.4539904997395468 -0.27533615807315864
vn 0.6724985119639576 -0.7071067811865474 -0.21850801222441046
vn 0.4317706231133891 -0.8910065241883679 -0.14029077970429507
vn 0.14877801734965815 -0.9876883405951379 -0.04834090820338497
vn 0.12655814072350025 0.9876883405951379 -0.09194987150091007
vn 0.36728602957406875 0.8910065241883678 -0.26684892042779557
vn 0.5720614028176846 0.7071067811865475 -0.41562693777745335
vn 0.7208394201673423 0.4539904997395467 -0.5237204946142995
vn 0.7990566526874578 0.15643446504023123 -0.5805486404630471
vn 0.7990566526874576 -0.15643446504023073 -0.5805486404630473
vn 0.7208394201673423 -0.45399049973954714 -0.5237204946142991
vn 0.5720614028176846 -0.7071067811865472 -0.4156269377774538
vn 0.3672860295740684 -0.8910065241883679 -0.2668489204277953
vn 0.12655814072350058 -0.9876883405951379 -0.09194987150091026
vn 0.09194987150091005 0.9876883405951379 -0.12655814072350025
vn 0.2668489204277955 0.8910065241883678 -0.36728602957406864
vn 0.41562693777745363 0.7071067811865475 -0.5720614028176844
vn 0.5237204946142995 0.4539904997395465 -0.7208394201673425
vn 0.580548640463047 0.15643446504023137 -0.7990566526874578
vn 0.5805486404630473 -0.15643446504023115 -0.7990566526874577
vn 0.5237204946142996 -0.45399049973954686 -0.7208394201673421
vn 0.4156269377774537 -0.7071067811865474 -0.5720614028176844
vn 0.26684892042779557 -0.891006524188368 -0.36728602957406853
vn 0.09194987150091026 -0.9876883405951379 -0.12655814072350055
vn 0.048340908203384894 0.9876883405951379 -0.14877801734965784
vn 0.14029077970429524 0.8910065241883678 -0.43177062311338943
vn 0.2185080122244106 0.7071067811865476 -0.6724985119639573
vn 0.27533615807315864 0.45399049973954636 -0.8473975608908427
vn 0.30521248238988896 0.15643446504023123 -0.9393474323917528
vn 0.305212482389889 -0.15643446504023079 -0.9393474323917529
vn 0.27533615807315853 -0.45399049973954686 -0.8473975608908427
vn 0.21850801222441069 -0.7071067811865474 -0.6724985119639576
vn 0.14029077970429496 -0.8910065241883681 -0.43177062311338915
vn 0.04834090820338499 -0.9876883405951379 -0.14877801734965815
vn 1.0918536538997192e-16 0.9876883405951379 -0.1564344650402307
vn 1.8043462260634337e-16 0.8910065241883678 -0.4539904997395471
vn 0 0.7071067811865476 -0.7071067811865476
vn 3.9030155331293153e-16 0.4539904997395465 -0.8910065241883682
vn 4.507414432266087e-16 0.1564344650402311 -0.9876883405951379
vn 4.460589180719215e-16 -0.15643446504023067 -0.9876883405951378
vn 0 -0.45399049973954686 -0.8910065241883678
vn 3.6086924521268683e-16 -0.7071067811865474 -0.7071067811865477
vn 3.432070471900394e-16 -0.8910065241883679 -0.4539904997395467
vn 1.0918536538997216e-16 -0.9876883405951379 -0.1564344650402311
vn -0.04834090820338484 0.9876883405951379 -0.14877801734965782
vn -0.14029077970429507 0.8910065241883679 -0.43177062311338954
vn -0.21850801222441016 0.7071067811865475 -0.6724985119639576
vn -0.27533615807315814 0.4539904997395467 -0.8473975608908427
vn -0.30521248238988885 0.15643446504023112 -0.9393474323917529
vn -0.30521248238988896 -0.15643446504023067 -0.9393474323917528
vn -0.2753361580731578 -0.45399049973954714 -0.8473975608908426
vn -0.21850801222441044 -0.7071067811865472 -0.6724985119639577
vn -0.14029077970429515 -0.8910065241883679 -0.43177062311338915
vn -0.048340908203385 -0.9876883405951379 -0.14877801734965815
vn -0.09194987150090998 0.9876883405951378 -0.12655814072350025
vn -0.26684892042779534 0.8910065241883679 -0.3672860295740688
vn -0.41562693777745324 0.7071067811865476 -0.5720614028176845
vn -0.5237204946142991 0.4539904997395465 -0.7208394201673427
vn -0.5805486404630467 0.15643446504023092 -0.7990566526874582
vn -0.5805486404630467 -0.15643446504023076 -0.7990566526874583
vn -0.5237204946142991 -0.45399049973954664 -0.7208394201673426
vn -0.41562693777745335 -0.7071067811865474 -0.5720614028176847
vn -0.26684892042779496 -0.8910065241883679 -0.3672860295740687
vn -0.09194987150091018 -0.9876883405951378 -0.12655814072350058
vn -0.12655814072350027 0.9876883405951379 -0.09194987150091005
vn -0.3672860295740687 0.8910065241883678 -0.26684892042779546
vn -0.5720614028176844 0.7071067811865475 -0.41562693777745363
vn -0.7208394201673425 0.4539904997395466 -0.5237204946142993
vn -0.7990566526874577 0.1564344650402311 -0.5805486404630471
vn -0.7990566526874578 -0.15643446504023087 -0.5805486404630472
vn -0.720839420167342 -0.4539904997395469 -0.5237204946142995
vn -0.5720614028176844 -0.7071067811865474 -0.4156269377774537
vn -0.36728602957406875 -0.8910065241883679 -0.26684892042779546
vn -0.12655814072350055 -0.9876883405951379 -0.09194987150091025
vn -0.14877801734965782 0.9876883405951379 -0.04834090820338489
vn -0.4317706231133893 0.8910065241883678 -0.1402907797042952
vn -0.6724985119639574 0.7071067811865475 -0.21850801222441057
vn -0.847397560890843 0.4539904997395464 -0.27533615807315864
vn -0.9393474323917528 0.15643446504023123 -0.30521248238988896
vn -0.9393474323917529 -0.15643446504023079 -0.305212482389889
vn -0.8473975608908427 -0.45399049973954686 -0.27533615807315853
vn -0.6724985119639576 -0.7071067811865474 -0.21850801222441066
vn -0.4317706231133891 -0.891006524188368 -0.140290779704295
vn -0.14877801734965815 -0.9876883405951379 -0.04834090820338499
vn -0.1564344650402307 0.9876883405951379 -1.0918536538997192e-16
vn -0.45399049973954697 0.8910065241883678 -1.8043462260634337e-16
vn -0.7071067811865476 0.7071067811865476 0
vn -0.8910065241883682 0.4539904997395465 -3.9030155331293153e-16
vn -0.9876883405951377 0.1564344650402311 -4.507414432266087e-16
vn -0.9876883405951378 -0.15643446504023065 -4.460589180719215e-16
vn -0.8910065241883678 -0.45399049973954686 0
vn -0.7071067811865478 -0.7071067811865474 -3.6086924521268693e-16
vn -0.4539904997395467 -0.8910065241883679 -3.432070471900394e-16
vn -0.1564344650402311 -0.9876883405951379 -1.0918536538997216e-16
vn -0.14877801734965782 0.9876883405951379 0.04834090820338488
vn -0.43177062311338954 0.8910065241883679 0.14029077970429513
vn -0.6724985119639575 0.7071067811865475 0.2185080122244106
vn -0.8473975608908428 0.4539904997395468 0.27533615807315853
vn -0.9393474323917529 0.1564344650402311 0.3052124823898888
vn -0.9393474323917529 -0.15643446504023065 0.305212482389889
vn -0.8473975608908424 -0.45399049973954714 0.2753361580731583
vn -0.6724985119639577 -0.7071067811865471 0.21850801222441063
vn -0.4317706231133892 -0.8910065241883679 0.14029077970429513
vn -0.14877801734965818 -0.9876883405951379 0.04834090820338504
vn -0.12655814072350025 0.9876883405951379 0.09194987150091005
vn -0.36728602957406875 0.8910065241883678 0.26684892042779546
vn -0.5720614028176847 0.7071067811865475 0.4156269377774532
vn -0.7208394201673425 0.4539904997395467 0.5237204946142994
vn -0.7990566526874576 0.1564344650402312 0.5805486404630471
vn -0.7990566526874578 -0.15643446504023073 0.5805486404630469
vn -0.7208394201673424 -0.4539904997395472 0.523720494614299
vn -0.5720614028176846 -0.7071067811865471 0.41562693777745374
vn -0.3672860295740686 -0.891006524188368 0.2668489204277953
vn -0.1265581407235006 -0.9876883405951379 0.09194987150091025
vn -0.09194987150091008 0.9876883405951379 0.12655814072350025
vn -0.26684892042779573 0.8910065241883678 0.3672860295740686
vn -0.41562693777745374 0.7071067811865475 0.5720614028176843
vn -0.5237204946142997 0.45399049973954647 0.7208394201673423
vn -0.5805486404630475 0.15643446504023115 0.7990566526874576
vn -0.5805486404630473 -0.1564344650402305 0.7990566526874576
vn -0.5237204946142996 -0.45399049973954714 0.7208394201673419
vn -0.4156269377774539 -0.7071067811865474 0.5720614028176843
vn -0.26684892042779557 -0.8910065241883679 0.3672860295740686
vn -0.0919498715009103 -0.9876883405951379 0.12655814072350052
vn -0.04834090820338489 0.9876883405951379 0.1487780173496578
vn -0.14029077970429524 0.8910065241883678 0.43177062311338943
vn -0.21850801222441066 0.7071067811865475 0.6724985119639574
vn -0.27533615807315864 0.45399049973954636 0.8473975608908427
vn -0.30521248238988896 0.15643446504023123 0.9393474323917528
vn -0.305212482389889 -0.15643446504023079 0.9393474323917529
vn -0.27533615807315853 -0.45399049973954686 0.8473975608908425
vn -0.21850801222441066 -0.7071067811865472 0.6724985119639576
vn -0.14029077970429502 -0.891006524188368 0.43177062311338915
vn -0.048340908203385 -0.9876883405951379 0.14877801734965815
vn -1.0918536538997181e-16 0.9876883405951379 0.1564344650402307
vn -1.8043462260634322e-16 0.8910065241883679 0.4539904997395471
vn 0 0.7071067811865476 0.7071067811865476
vn -3.903015533129312e-16 0.45399049973954647 0.8910065241883682
vn -4.507414432266084e-16 0.15643446504023112 0.9876883405951379
vn -4.460589180719211e-16 -0.15643446504023067 0.9876883405951378
vn 0 -0.45399049973954686 0.8910065241883678
vn -3.6086924521268644e-16 -0.7071067811865474 0.7071067811865478
vn -3.4320704719003905e-16 -0.891006524188368 0.45399049973954664
vn -1.0918536538997202e-16 -0.9876883405951378 0.15643446504023106
usemtl m_d3daeed9-3d82-59ca-81cb-1caccf7ea1cc
f 3/1/1 12/2/1 2/3/1
f 3/4/2 4/5/2 13/6/2 12/7/2
f 4/8/3 5/9/3 14/10/3 13/11/3
f 5/12/4 6/13/4 15/14/4 14/15/4
f 6/16/5 7/17/5 16/18/5 15/19/5
f 7/20/6 8/21/6 17/22/6 16/23/6
f 8/24/7 9/25/7 18/26/7 17/27/7
f 9/28/8 10/29/8 19/30/8 18/31/8
f 10/32/9 11/33/9 20/34/9 19/35/9
f 20/36/10 11/37/10 1/38/10
f 12/39/11 21/40/11 2/41/11
f 12/42/12 13/43/12 22/44/12 21/45/12
f 13/46/13 14/47/13 23/48/13 22/49/13
f 14/50/14 15/51/14 24/52/14 23/53/14
f 15/54/15 16/55/15 25/56/15 24/57/15
f 16/58/16 17/59/16 26/60/16 25/61/16
f 17/62/17 18/63/17 27/64/17 26/65/17
f 18/66/18 19/67/18 28/68/18 27/69/18
f 19/70/19 20/71/19 29/72/19 28/73/19
f 29/74/20 20/75/20 1/76/20
f 21/77/21 30/78/21 2/79/21
f 21/80/22 22/81/22 31/82/22 30/83/22
f 22/84/23 23/85/23 32/86/23 31/87/23
f 23/88/24 24/89/24 33/90/24 32/91/24
f 24/92/25 25/93/25 34/94/25 33/95/25
f 25/96/26 26/97/26 35/98/26 34/99/26
f 26/100/27 27/101/27 36/102/27 35/103/27
f 27/104/28 28/105/28 37/106/28 36/107/28
f 28/108/29 29/109/29 38/110/29 37/111/29
f 38/112/30 29/113/30 1/114/30
f 30/115/31 39/116/31 2/117/31
f 30/118/32 31/119/32 40/120/32 39/121/32
f 31/122/33 32/123/33 41/124/33 40/125/33
f 32/126/34 33/127/34 42/128/34 41/129/34
f 33/130/35 34/131/35 43/132/35 42/133/35
f 34/134/36 35/135/36 44/136/36 43/137/36
f 35/138/37 36/139/37 45/140/37 44/141/37
f 36/142/38 37/143/38 46/144/38 45/145/38
f 37/146/39 38/147/39 47/148/39 46/149/39
f 47/150/40 38/151/40 1/152/40
f 39/153/41 48/154/41 2/155/41
f 39/156/42 40/157/42 49/158/42 48/159/42
f 40/160/43 41/161/43 50/162/43 49/163/43
f 41/164/44 42/165/44 51/166/44 50/167/44
f 42/168/45 43/169/45 52/170/45 51/171/45
f 43/172/46 44/173/46 53/174/46 52/175/46
f 44/176/47 45/177/47 54/178/47 53/179/47
f 45/180/48 46/181/48 55/182/48 54/183/48
f 46/184/49 47/185/49 56/186/49 55/187/49
f 56/188/50 47/189/50 1/190/50
f 48/191/51 57/192/51 2/193/51
f 48/194/52 49/195/52 58/196/52 57/197/52
f 49/198/53 50/199/53 59/200/53 58/201/53
f 50/202/54 51/203/54 60/204/54 59/205/54
f 51/206/55 52/207/55 61/208/55 60/209/55
f 52/210/56 53/211/56 62/212/56 61/213/56
f 53/214/57 54/215/57 63/216/57 62/217/57
f 54/218/58 55/219/58 64/220/58 63/221/58
f 55/222/59 56/223/59 65/224/59 64/225/59
f 65/226/60 56/227/60 1/228/60
f 57/229/61 66/230/61 2/231/61
f 57/232/62 58/233/62 67/234/62 66/235/62
f 58/236/63 59/237/63 68/238/63 67/239/63
f 59/240/64 60/241/64 69/242/64 68/243/64
f 60/244/65 61/245/65 70/246/65 69/247/65
f 61/248/66 62/249/66 71/250/66 70/251/66
f 62/252/67 63/253/67 72/254/67 71/255/67
f 63/256/68 64/257/68 73/258/68 72/259/68
f 64/260/69 65/261/69 74/262/69 73/263/69
f 74/264/70 65/265/70 1/266/70
f 66/267/71 75/268/71 2/269/71
f 66/270/72 67/271/72 76/272/72 75/273/72
f 67/274/73 68/275/73 77/276/73 76/277/73
f 68/278/74 69/279/74 78/280/74 77/281/74
f 69/282/75 70/283/75 79/284/75 78/285/75
f 70/286/76 71/287/76 80/288/76 79/289/76
f 71/290/77 72/291/77 81/292/77 80/293/77
f 72/294/78 73/295/78 82/296/78 81/297/78
f 73/298/79 74/299/79 83/300/79 82/301/79
f 83/302/80 74/303/80 1/304/80
f 75/305/81 84/306/81 2/307/81
f 75/308/82 76/309/82 85/310/82 84/311/82
f 76/312/83 77/313/83 86/314/83 85/315/83
f 77/316/84 78/317/84 87/318/84 86/319/84
f 78/320/85 79/321/85 88/322/85 87/323/85
f 79/324/86 80/325/86 89/326/86 88/327/86
f 80/328/87 81/329/87 90/330/87 89/331/87
f 81/332/88 82/333/88 91/334/88 90/335/88
f 82/336/89 83/337/89 92/338/89 91/339/89
f 92/340/90 83/341/90 1/342/90
f 84/343/91 93/344/91 2/345/91
f 84/346/92 85/347/92 94/348/92 93/349/92
f 85/350/93 86/351/93 95/352/93 94/353/93
f 86/354/94 87/355/94 96/356/94 95/357/94
f 87/358/95 88/359/95 97/360/95 96/361/95
f 88/362/96 89/363/96 98/364/96 97/365/96
f 89/366/97 90/367/97 99/368/97 98/369/97
f 90/370/98 91/371/98 100/372/98 99/373/98
f 91/374/99 92/375/99 101/376/99 100/377/99
f 101/378/100 92/379/100 1/380/100
f 93/381/101 102/382/101 2/383/101
f 93/384/102 94/385/102 103/386/102 102/387/102
f 94/388/103 95/389/103 104/390/103 103/391/103
f 95/392/104 96/393/104 105/394/104 104/395/104
f 96/396/105 97/397/105 106/398/105 105/399/105
f 97/400/106 98/401/106 107/402/106 106/403/106
f 98/404/107 99/405/107 108/406/107 107/407/107
f 99/408/108 100/409/108 109/410/108 108/411/108
f 100/412/109 101/413/109 110/414/109 109/415/109
f 110/416/110 101/417/110 1/418/110
f 102/419/111 111/420/111 2/421/111
f 102/422/112 103/423/112 112/424/112 111/425/112
f 103/426/113 104/427/113 113/428/113 112/429/113
f 104/430/114 105/431/114 114/432/114 113/433/114
f 105/434/115 106/435/115 115/436/115 114/437/115
f 106/438/116 107/439/116 116/440/116 115/441/116
f 107/442/117 108/443/117 117/444/117 116/445/117
f 108/446/118 109/447/118 118/448/118 117/449/118
f 109/450/119 110/451/119 119/452/119 118/453/119
f 119/454/120 110/455/120 1/456/120
f 111/457/121 120/458/121 2/459/121
f 111/460/122 112/461/122 121/462/122 120/463/122
f 112/464/123 113/465/123 122/466/123 121/467/123
f 113/468/124 114/469/124 123/470/124 122/471/124
f 114/472/125 115/473/125 124/474/125 123/475/125
f 115/476/126 116/477/126 125/478/126 124/479/126
f 116/480/127 117/481/127 126/482/127 125/483/127
f 117/484/128 118/485/128 127/486/128 126/487/128
f 118/488/129 119/489/129 128/490/129 127/491/129
f 128/492/130 119/493/130 1/494/130
f 120/495/131 129/496/131 2/497/131
f 120/498/132 121/499/132 130/500/132 129/501/132
f 121/502/133 122/503/133 131/504/133 130/505/133
f 122/506/134 123/507/134 132/508/134 131/509/134
f 123/510/135 124/511/135 133/512/135 132/513/135
f 124/514/136 125/515/136 134/516/136 133/517/136
f 125/518/137 126/519/137 135/520/137 134/521/137
f 126/522/138 127/523/138 136/524/138 135/525/138
f 127/526/139 128/527/139 137/528/139 136/529/139
f 137/530/140 128/531/140 1/532/140
f 129/533/141 138/534/141 2/535/141
f 129/536/142 130/537/142 139/538/142 138/539/142
f 130/540/143 131/541/143 140/542/143 139/543/143
f 131/544/144 132/545/144 141/546/144 140/547/144
f 132/548/145 133/549/145 142/550/145 141/551/145
f 133/552/146 134/553/146 143/554/146 142/555/146
f 134/556/147 135/557/147 144/558/147 143/559/147
f 135/560/148 136/561/148 145/562/148 144/563/148
f 136/564/149 137/565/149 146/566/149 145/567/149
f 146/568/150 137/569/150 1/570/150
f 138/571/151 147/572/151 2/573/151
f 138/574/152 139/575/152 148/576/152 147/577/152
f 139/578/153 140/579/153 149/580/153 148/581/153
f 140/582/154 141/583/154 150/584/154 149/585/154
f 141/586/155 142/587/155 151/588/155 150/589/155
f 142/590/156 143/591/156 152/592/156 151/593/156
f 143/594/157 144/595/157 153/596/157 152/597/157
f 144/598/158 145/599/158 154/600/158 153/601/158
f 145/602/159 146/603/159 155/604/159 154/605/159
f 155/606/160 146/607/160 1/608/160
f 147/609/161 156/610/161 2/611/161
f 147/612/162 148/613/162 157/614/162 156/615/162
f 148/616/163 149/617/163 158/618/163 157/619/163
f 149/620/164 150/621/164 159/622/164 158/623/164
f 150/624/165 151/625/165 160/626/165 159/627/165
f 151/628/166 152/629/166 161/630/166 160/631/166
f 152/632/167 153/633/167 162/634/167 161/635/167
f 153/636/168 154/637/168 163/638/168 162/639/168
f 154/640/169 155/641/169 164/642/169 163/643/169
f 164/644/170 155/645/170 1/646/170
f 156/647/171 165/648/171 2/649/171
f 156/650/172 157/651/172 166/652/172 165/653/172
f 157/654/173 158/655/173 167/656/173 166/657/173
f 158/658/174 159/659/174 168/660/174 167/661/174
f 159/662/175 160/663/175 169/664/175 168/665/175
f 160/666/176 161/667/176 170/668/176 169/669/176
f 161/670/177 162/671/177 171/672/177 170/673/177
f 162/674/178 163/675/178 172/676/178 171/677/178
f 163/678/179 164/679/179 173/680/179 172/681/179
f 173/682/180 164/683/180 1/684/180
f 165/685/181 174/686/181 2/687/181
f 165/688/182 166/689/182 175/690/182 174/691/182
f 166/692/183 167/693/183 176/694/183 175/695/183
f 167/696/184 168/697/184 177/698/184 176/699/184
f 168/700/185 169/701/185 178/702/185 177/703/185
f 169/704/186 170/705/186 179/706/186 178/707/186
f 170/708/187 171/709/187 180/710/187 179/711/187
f 171/712/188 172/713/188 181/714/188 180/715/188
f 172/716/189 173/717/189 182/718/189 181/719/189
f 182/720/190 173/721/190 1/722/190
f 174/723/191 3/724/191 2/725/191
f 174/726/192 175/727/192 4/728/192 3/729/192
f 175/730/193 176/731/193 5/732/193 4/733/193
f 176/734/194 177/735/194 6/736/194 5/737/194
f 177/738/195 178/739/195 7/740/195 6/741/195
f 178/742/196 179/743/196 8/744/196 7/745/196
f 179/746/197 180/747/197 9/748/197 8/749/197
f 180/750/198 181/751/198 10/752/198 9/753/198
f 181/754/199 182/755/199 11/756/199 10/757/199
f 11/758/200 182/759/200 1/760/200