# Made in Blockbench 4.9.4
mtllib chidori.mtl

o sphere
v 0 -0.125 0
v 0 1.5 0
v 0.039766580510187714 1.4602334194898123 0.25107630792964475
v 0.07564053104997977 1.3448263079296447 0.47757551748763444
v 0.10411025939203059 1.1650755174876344 0.6573263079296447
v 0.12238895016595902 0.9385763079296447 0.7727334194898122
v 0.12868735776368573 0.6875 0.8125
v 0.12238895016595903 0.43642369207035525 0.7727334194898123
v 0.10411025939203059 0.20992448251236567 0.6573263079296447
v 0.07564053104997978 0.03017369207035525 0.4775755174876345
v 0.03976658051018773 -0.08523341948981222 0.25107630792964486
v 0.11540711156016746 1.4602334194898123 0.2264992095579896
v 0.21951737095219806 1.3448263079296447 0.43082709837165517
v 0.3021397406079694 1.1650755174876344 0.5929826290478019
v 0.35518656732167525 0.9385763079296447 0.6970928884398324
v 0.37346525809560377 0.6875 0.7329668389796246
v 0.3551865673216753 0.43642369207035525 0.6970928884398325
v 0.3021397406079694 0.20992448251236567 0.5929826290478019
v 0.2195173709521981 0.03017369207035525 0.4308270983716552
v 0.1154071115601675 -0.08523341948981222 0.2264992095579897
v 0.1797507904420103 1.4602334194898123 0.17975079044201034
v 0.3419063211181571 1.3448263079296447 0.34190632111815716
v 0.4705936788818428 1.1650755174876344 0.4705936788818429
v 0.5532160485376141 0.9385763079296447 0.5532160485376141
v 0.5816857768796649 0.6875 0.581685776879665
v 0.5532160485376141 0.43642369207035525 0.5532160485376142
v 0.4705936788818428 0.20992448251236567 0.4705936788818429
v 0.3419063211181571 0.03017369207035525 0.34190632111815716
v 0.1797507904420104 -0.08523341948981222 0.17975079044201042
v 0.22649920955798955 1.4602334194898123 0.11540711156016747
v 0.4308270983716551 1.3448263079296447 0.2195173709521981
v 0.5929826290478019 1.1650755174876344 0.3021397406079694
v 0.6970928884398323 0.9385763079296447 0.3551865673216753
v 0.7329668389796244 0.6875 0.3734652580956038
v 0.6970928884398324 0.43642369207035525 0.35518656732167536
v 0.5929826290478019 0.20992448251236567 0.3021397406079694
v 0.43082709837165517 0.03017369207035525 0.21951737095219812
v 0.22649920955798966 -0.08523341948981222 0.11540711156016752
v 0.25107630792964475 1.4602334194898123 0.03976658051018773
v 0.47757551748763444 1.3448263079296447 0.0756405310499798
v 0.6573263079296447 1.1650755174876344 0.10411025939203063
v 0.7727334194898122 0.9385763079296447 0.12238895016595906
v 0.8125 0.6875 0.12868735776368578
v 0.7727334194898123 0.43642369207035525 0.12238895016595908
v 0.6573263079296447 0.20992448251236567 0.10411025939203063
v 0.4775755174876345 0.03017369207035525 0.07564053104997981
v 0.25107630792964486 -0.08523341948981222 0.03976658051018774
v 0.2510763079296447 1.4602334194898123 -0.039766580510187756
v 0.4775755174876344 1.3448263079296447 -0.07564053104997985
v 0.6573263079296447 1.1650755174876344 -0.1041102593920307
v 0.7727334194898121 0.9385763079296447 -0.12238895016595915
v 0.8124999999999999 0.6875 -0.12868735776368587
v 0.7727334194898122 0.43642369207035525 -0.12238895016595917
v 0.6573263079296447 0.20992448251236567 -0.1041102593920307
v 0.47757551748763444 0.03017369207035525 -0.07564053104997986
v 0.2510763079296448 -0.08523341948981222 -0.03976658051018777
v 0.2264992095579896 1.4602334194898123 -0.11540711156016745
v 0.43082709837165517 1.3448263079296447 -0.21951737095219803
v 0.5929826290478019 1.1650755174876344 -0.30213974060796933
v 0.6970928884398324 0.9385763079296447 -0.35518656732167525
v 0.7329668389796246 0.6875 -0.3734652580956037
v 0.6970928884398325 0.43642369207035525 -0.3551865673216753
v 0.5929826290478019 0.20992448251236567 -0.30213974060796933
v 0.4308270983716552 0.03017369207035525 -0.21951737095219806
v 0.2264992095579897 -0.08523341948981222 -0.11540711156016749
v 0.17975079044201034 1.4602334194898123 -0.1797507904420103
v 0.34190632111815716 1.3448263079296447 -0.3419063211181571
v 0.4705936788818429 1.1650755174876344 -0.4705936788818428
v 0.5532160485376141 0.9385763079296447 -0.5532160485376141
v 0.581685776879665 0.6875 -0.5816857768796649
v 0.5532160485376142 0.43642369207035525 -0.5532160485376141
v 0.4705936788818429 0.20992448251236567 -0.4705936788818428
v 0.34190632111815716 0.03017369207035525 -0.3419063211181571
v 0.17975079044201042 -0.08523341948981222 -0.1797507904420104
v 0.11540711156016749 1.4602334194898123 -0.22649920955798955
v 0.21951737095219812 1.3448263079296447 -0.4308270983716551
v 0.30213974060796944 1.1650755174876344 -0.5929826290478019
v 0.35518656732167536 0.9385763079296447 -0.6970928884398323
v 0.3734652580956038 0.6875 -0.7329668389796244
v 0.3551865673216754 0.43642369207035525 -0.6970928884398324
v 0.30213974060796944 0.20992448251236567 -0.5929826290478019
v 0.21951737095219814 0.03017369207035525 -0.43082709837165517
v 0.11540711156016753 -0.08523341948981222 -0.22649920955798966
v 0.03976658051018774 1.4602334194898123 -0.2510763079296447
v 0.07564053104997982 1.3448263079296447 -0.4775755174876344
v 0.10411025939203065 1.1650755174876344 -0.6573263079296447
v 0.1223889501659591 0.9385763079296447 -0.7727334194898121
v 0.1286873577636858 0.6875 -0.8124999999999999
v 0.12238895016595913 0.43642369207035525 -0.7727334194898122
v 0.10411025939203065 0.20992448251236567 -0.6573263079296447
v 0.07564053104997984 0.03017369207035525 -0.47757551748763444
v 0.039766580510187756 -0.08523341948981222 -0.2510763079296448
v -0.03976658051018768 1.4602334194898123 -0.25107630792964475
v -0.0756405310499797 1.3448263079296447 -0.47757551748763444
v -0.10411025939203049 1.1650755174876344 -0.6573263079296447
v -0.12238895016595891 0.9385763079296447 -0.7727334194898122
v -0.12868735776368562 0.6875 -0.8125
v -0.12238895016595892 0.43642369207035525 -0.7727334194898123
v -0.10411025939203049 0.20992448251236567 -0.6573263079296447
v -0.07564053104997971 0.03017369207035525 -0.4775755174876345
v -0.03976658051018769 -0.08523341948981222 -0.25107630792964486
v -0.11540711156016734 1.4602334194898123 -0.22649920955798966
v -0.2195173709521978 1.3448263079296447 -0.4308270983716553
v -0.30213974060796905 1.1650755174876344 -0.5929826290478021
v -0.35518656732167486 0.9385763079296447 -0.6970928884398326
v -0.3734652580956033 0.6875 -0.7329668389796247
v -0.3551865673216749 0.43642369207035525 -0.6970928884398326
v -0.30213974060796905 0.20992448251236567 -0.5929826290478021
v -0.21951737095219784 0.03017369207035525 -0.43082709837165534
v -0.11540711156016738 -0.08523341948981222 -0.22649920955798974
v -0.1797507904420103 1.4602334194898123 -0.17975079044201037
v -0.3419063211181571 1.3448263079296447 -0.3419063211181572
v -0.4705936788818428 1.1650755174876344 -0.47059367888184295
v -0.5532160485376141 0.9385763079296447 -0.5532160485376142
v -0.5816857768796649 0.6875 -0.581685776879665
v -0.5532160485376141 0.43642369207035525 -0.5532160485376143
v -0.4705936788818428 0.20992448251236567 -0.47059367888184295
v -0.3419063211181571 0.03017369207035525 -0.3419063211181572
v -0.1797507904420104 -0.08523341948981222 -0.17975079044201045
v -0.22649920955798955 1.4602334194898123 -0.1154071115601675
v -0.4308270983716551 1.3448263079296447 -0.21951737095219814
v -0.5929826290478019 1.1650755174876344 -0.3021397406079695
v -0.6970928884398323 0.9385763079296447 -0.3551865673216754
v -0.7329668389796244 0.6875 -0.3734652580956039
v -0.6970928884398324 0.43642369207035525 -0.3551865673216755
v -0.5929826290478019 0.20992448251236567 -0.3021397406079695
v -0.43082709837165517 0.03017369207035525 -0.21951737095219817
v -0.22649920955798966 -0.08523341948981222 -0.11540711156016754
v -0.2510763079296447 1.4602334194898123 -0.039766580510187756
v -0.4775755174876344 1.3448263079296447 -0.07564053104997985
v -0.6573263079296447 1.1650755174876344 -0.1041102593920307
v -0.7727334194898121 0.9385763079296447 -0.12238895016595915
v -0.8124999999999999 0.6875 -0.12868735776368587
v -0.7727334194898122 0.43642369207035525 -0.12238895016595917
v -0.6573263079296447 0.20992448251236567 -0.1041102593920307
v -0.47757551748763444 0.03017369207035525 -0.07564053104997986
v -0.2510763079296448 -0.08523341948981222 -0.03976658051018777
v -0.25107630792964475 1.4602334194898123 0.039766580510187666
v -0.47757551748763444 1.3448263079296447 0.07564053104997967
v -0.6573263079296447 1.1650755174876344 0.10411025939203046
v -0.7727334194898122 0.9385763079296447 0.12238895016595887
v -0.8125 0.6875 0.12868735776368556
v -0.7727334194898123 0.43642369207035525 0.12238895016595888
v -0.6573263079296447 0.20992448251236567 0.10411025939203046
v -0.4775755174876345 0.03017369207035525 0.07564053104997968
v -0.25107630792964486 -0.08523341948981222 0.03976658051018768
v -0.2264992095579896 1.4602334194898123 0.11540711156016743
v -0.43082709837165517 1.3448263079296447 0.219517370952198
v -0.5929826290478019 1.1650755174876344 0.3021397406079693
v -0.6970928884398324 0.9385763079296447 0.3551865673216752
v -0.7329668389796246 0.6875 0.37346525809560366
v -0.6970928884398325 0.43642369207035525 0.35518656732167525
v -0.5929826290478019 0.20992448251236567 0.3021397406079693
v -0.4308270983716552 0.03017369207035525 0.21951737095219803
v -0.2264992095579897 -0.08523341948981222 0.11540711156016747
v -0.17975079044201037 1.4602334194898123 0.17975079044201028
v -0.3419063211181572 1.3448263079296447 0.34190632111815705
v -0.47059367888184295 1.1650755174876344 0.4705936788818427
v -0.5532160485376142 0.9385763079296447 0.553216048537614
v -0.581685776879665 0.6875 0.5816857768796648
v -0.5532160485376143 0.43642369207035525 0.5532160485376141
v -0.47059367888184295 0.20992448251236567 0.4705936788818427
v -0.3419063211181572 0.03017369207035525 0.34190632111815705
v -0.17975079044201045 -0.08523341948981222 0.17975079044201037
v -0.11540711156016752 1.4602334194898123 0.22649920955798955
v -0.21951737095219817 1.3448263079296447 0.4308270983716551
v -0.3021397406079695 1.1650755174876344 0.5929826290478019
v -0.3551865673216755 0.9385763079296447 0.6970928884398323
v -0.37346525809560394 0.6875 0.7329668389796244
v -0.35518656732167553 0.43642369207035525 0.6970928884398324
v -0.3021397406079695 0.20992448251236567 0.5929826290478019
v -0.2195173709521982 0.03017369207035525 0.43082709837165517
v -0.11540711156016756 -0.08523341948981222 0.22649920955798966
v -0.03976658051018778 1.4602334194898123 0.2510763079296447
v -0.07564053104997989 1.3448263079296447 0.4775755174876344
v -0.10411025939203075 1.1650755174876344 0.6573263079296447
v -0.12238895016595921 0.9385763079296447 0.7727334194898121
v -0.12868735776368592 0.6875 0.8124999999999999
v -0.12238895016595923 0.43642369207035525 0.7727334194898122
v -0.10411025939203075 0.20992448251236567 0.6573263079296447
v -0.0756405310499799 0.03017369207035525 0.47757551748763444
v -0.0397665805101878 -0.08523341948981222 0.2510763079296448
vt 0.3980094191488106 0.6573248835865428
vt 0.4064695145594565 0.6579486757009738
vt 0.3814733563029239 0.665458912290917
vt 0.3980094191488106 0.6573248835865428
vt 0.41444750910452477 0.6373104588414102
vt 0.4306596344034946 0.6390678813210249
vt 0.4064695145594565 0.6579486757009738
vt 0.41444750910452477 0.6373104588414102
vt 0.42821831640338504 0.6068098166308951
vt 0.45043839716298806 0.61040630352879
vt 0.4306596344034946 0.6390678813210249
vt 0.42821831640338504 0.6068098166308951
vt 0.43682384796241835 0.5699197522591575
vt 0.4625801983131381 0.5757601375126757
vt 0.45043839716298806 0.61040630352879
vt 0.43682384796241835 0.5699197522591575
vt 0.43873391672162654 0.5326090706288361
vt 0.46525284990819893 0.5403246669453511
vt 0.4625801983131381 0.5757601375126757
vt 0.43873391672162654 0.5326090706288361
vt 0.43394764011977927 0.5008109913637528
vt 0.4585404532756734 0.5092276454432224
vt 0.46525284990819893 0.5403246669453511
vt 0.43394764011977927 0.5008109913637528
vt 0.42383370064242504 0.4786023013694318
vt 0.44418796323252296 0.4862012853315594
vt 0.4585404532756734 0.5092276454432224
vt 0.42383370064242504 0.4786023013694318
vt 0.41044070931660526 0.4675152764349282
vt 0.42482232023520494 0.47302649872746727
vt 0.44418796323252296 0.4862012853315594
vt 0.41044070931660526 0.4675152764349282
vt 0.3957889636295763 0.4670034439392201
vt 0.40315221250664185 0.4697655845158478
vt 0.42482232023520494 0.47302649872746727
vt 0.40315221250664185 0.4697655845158478
vt 0.3957889636295763 0.4670034439392201
vt 0.3814733563029239 0.4753767655151191
vt 0.4064695145594565 0.6579486757009738
vt 0.4121435762377763 0.6587712502254817
vt 0.3814733563029239 0.665458912290917
vt 0.4064695145594565 0.6579486757009738
vt 0.4306596344034946 0.6390678813210249
vt 0.4407922637364209 0.6413156223503784
vt 0.4121435762377763 0.6587712502254817
vt 0.4306596344034946 0.6390678813210249
vt 0.45043839716298806 0.61040630352879
vt 0.46349814259370536 0.6148931312577307
vt 0.4407922637364209 0.6413156223503784
vt 0.45043839716298806 0.61040630352879
vt 0.4625801983131381 0.5757601375126757
vt 0.4771291120306822 0.5829361257571339
vt 0.46349814259370536 0.6148931312577307
vt 0.4625801983131381 0.5757601375126757
vt 0.46525284990819893 0.5403246669453511
vt 0.4800988725191123 0.5497729694770687
vt 0.4771291120306822 0.5829361257571339
vt 0.46525284990819893 0.5403246669453511
vt 0.4585404532756734 0.5092276454432224
vt 0.47261938529572667 0.5196216118572607
vt 0.4800988725191123 0.5497729694770687
vt 0.4585404532756734 0.5092276454432224
vt 0.44418796323252296 0.4862012853315594
vt 0.45639069272289146 0.4957562475248469
vt 0.47261938529572667 0.5196216118572607
vt 0.44418796323252296 0.4862012853315594
vt 0.42482232023520494 0.47302649872746727
vt 0.43396915935676406 0.48012741347802
vt 0.45639069272289146 0.4957562475248469
vt 0.42482232023520494 0.47302649872746727
vt 0.40315221250664185 0.4697655845158478
vt 0.4081369016151327 0.47342325429368914
vt 0.43396915935676406 0.48012741347802
vt 0.4081369016151327 0.47342325429368914
vt 0.40315221250664185 0.4697655845158478
vt 0.3814733563029239 0.4753767655151191
vt 0.4121435762377763 0.6587712502254817
vt 0.4145700533557931 0.6596948838928642
vt 0.3814733563029239 0.665458912290917
vt 0.4121435762377763 0.6587712502254817
vt 0.4407922637364209 0.6413156223503784
vt 0.4442787637379487 0.6437495768781805
vt 0.4145700533557931 0.6596948838928642
vt 0.4407922637364209 0.6413156223503784
vt 0.46349814259370536 0.6148931312577307
vt 0.467040940048058 0.6196141179555499
vt 0.4442787637379487 0.6437495768781805
vt 0.46349814259370536 0.6148931312577307
vt 0.4771291120306822 0.5829361257571339
vt 0.4803866567877809 0.5903576315514425
vt 0.467040940048058 0.6196141179555499
vt 0.4771291120306822 0.5829361257571339
vt 0.4800988725191123 0.5497729694770687
vt 0.48326331368252234 0.5595079279478856
vt 0.4803866567877809 0.5903576315514425
vt 0.4800988725191123 0.5497729694770687
vt 0.47261938529572667 0.5196216118572607
vt 0.4759972572974863 0.5304326414639972
vt 0.48326331368252234 0.5595079279478856
vt 0.47261938529572667 0.5196216118572607
vt 0.45639069272289146 0.4957562475248469
vt 0.4599882455486382 0.5059006250127567
vt 0.4759972572974863 0.5304326414639972
vt 0.45639069272289146 0.4957562475248469
vt 0.43396915935676406 0.48012741347802
vt 0.437305258071361 0.4878832939749064
vt 0.4599882455486382 0.5059006250127567
vt 0.43396915935676406 0.48012741347802
vt 0.4081369016151327 0.47342325429368914
vt 0.41032390270025976 0.47755121241486154
vt 0.437305258071361 0.4878832939749064
vt 0.41032390270025976 0.47755121241486154
vt 0.4081369016151327 0.47342325429368914
vt 0.3814733563029239 0.4753767655151191
vt 0.4145700533557931 0.6596948838928642
vt 0.4136947215422686 0.6606208030392684
vt 0.3814733563029239 0.665458912290917
vt 0.4145700533557931 0.6596948838928642
vt 0.4442787637379487 0.6437495768781805
vt 0.44148380656905367 0.6460991689301059
vt 0.4136947215422686 0.6606208030392684
vt 0.4442787637379487 0.6437495768781805
vt 0.467040940048058 0.6196141179555499
vt 0.462087617567535 0.6240414878732639
vt 0.44148380656905367 0.6460991689301059
vt 0.467040940048058 0.6196141179555499
vt 0.4803866567877809 0.5903576315514425
vt 0.47390158489910206 0.5972003995488896
vt 0.462087617567535 0.6240414878732639
vt 0.4803866567877809 0.5903576315514425
vt 0.48326331368252234 0.5595079279478856
vt 0.4764229008531313 0.5684509430019415
vt 0.47390158489910206 0.5972003995488896
vt 0.48326331368252234 0.5595079279478856
vt 0.4759972572974863 0.5304326414639972
vt 0.47003727839182813 0.5404564418093938
vt 0.4764229008531313 0.5684509430019415
vt 0.4759972572974863 0.5304326414639972
vt 0.4599882455486382 0.5059006250127567
vt 0.4557656703990177 0.5154997848155287
vt 0.47003727839182813 0.5404564418093938
vt 0.4599882455486382 0.5059006250127567
vt 0.437305258071361 0.4878832939749064
vt 0.4350538688661538 0.495436992558022
vt 0.4557656703990177 0.5154997848155287
vt 0.437305258071361 0.4878832939749064
vt 0.41032390270025976 0.47755121241486154
vt 0.40963693011980395 0.4817117688162622
vt 0.4350538688661538 0.495436992558022
vt 0.40963693011980395 0.4817117688162622
vt 0.41032390270025976 0.47755121241486154
vt 0.3814733563029239 0.4753767655151191
vt 0.4136947215422686 0.6606208030392684
vt 0.40979818261305867 0.6614612488745979
vt 0.3814733563029239 0.665458912290917
vt 0.4136947215422686 0.6606208030392684
vt 0.44148380656905367 0.6460991689301059
vt 0.433353442570535 0.6481576656567956
vt 0.40979818261305867 0.6614612488745979
vt 0.44148380656905367 0.6460991689301059
vt 0.462087617567535 0.6240414878732639
vt 0.45032078061147085 0.6278196300992419
vt 0.433353442570535 0.6481576656567956
vt 0.462087617567535 0.6240414878732639
vt 0.47390158489910206 0.5972003995488896
vt 0.4598653213910586 0.6029521857891752
vt 0.45032078061147085 0.6278196300992419
vt 0.47390158489910206 0.5972003995488896
vt 0.4764229008531313 0.5684509430019415
vt 0.4618852600624168 0.5759439034057419
vt 0.4598653213910586 0.6029521857891752
vt 0.4764229008531313 0.5684509430019415
vt 0.47003727839182813 0.5404564418093938
vt 0.456757873544406 0.5489238501689861
vt 0.4618852600624168 0.5759439034057419
vt 0.47003727839182813 0.5404564418093938
vt 0.4557656703990177 0.5154997848155287
vt 0.4451585456126744 0.523757762548776
vt 0.456757873544406 0.5489238501689861
vt 0.4557656703990177 0.5154997848155287
vt 0.4350538688661538 0.495436992558022
vt 0.4279727572310583 0.5021093399835878
vt 0.4451585456126744 0.523757762548776
vt 0.4350538688661538 0.495436992558022
vt 0.40963693011980395 0.4817117688162622
vt 0.40629210385695613 0.48550781333337023
vt 0.4279727572310583 0.5021093399835878
vt 0.40629210385695613 0.48550781333337023
vt 0.40963693011980395 0.4817117688162622
vt 0.3814733563029239 0.4753767655151191
vt 0.40979818261305867 0.6614612488745979
vt 0.4033964785907389 0.6621459908239884
vt 0.3814733563029239 0.665458912290917
vt 0.40979818261305867 0.6614612488745979
vt 0.433353442570535 0.6481576656567956
vt 0.4210936389363642 0.649785085479265
vt 0.4033964785907389 0.6621459908239884
vt 0.433353442570535 0.6481576656567956
vt 0.45032078061147085 0.6278196300992419
vt 0.4335521998650793 0.6307423452637393
vt 0.4210936389363642 0.649785085479265
vt 0.45032078061147085 0.6278196300992419
vt 0.4598653213910586 0.6029521857891752
vt 0.44045702269448794 0.6073474866604196
vt 0.4335521998650793 0.6307423452637393
vt 0.4598653213910586 0.6029521857891752
vt 0.4618852600624168 0.5759439034057419
vt 0.44190891446629155 0.5816548990120586
vt 0.44045702269448794 0.6073474866604196
vt 0.4618852600624168 0.5759439034057419
vt 0.456757873544406 0.5489238501689861
vt 0.43821706526336707 0.55542021071467
vt 0.44190891446629155 0.5816548990120586
vt 0.456757873544406 0.5489238501689861
vt 0.4451585456126744 0.523757762548776
vt 0.42978685222658064 0.5301884443698595
vt 0.43821706526336707 0.55542021071467
vt 0.4451585456126744 0.523757762548776
vt 0.4279727572310583 0.5021093399835878
vt 0.41709274338937674 0.507420837305768
vt 0.42978685222658064 0.5301884443698595
vt 0.4279727572310583 0.5021093399835878
vt 0.40629210385695613 0.48550781333337023
vt 0.4007214505067628 0.4886144467215816
vt 0.41709274338937674 0.507420837305768
vt 0.4007214505067628 0.4886144467215816
vt 0.40629210385695613 0.48550781333337023
vt 0.3814733563029239 0.4753767655151191
vt 0.4033964785907389 0.6621459908239884
vt 0.39514887322669134 0.6626242233175914
vt 0.3814733563029239 0.665458912290917
vt 0.4033964785907389 0.6621459908239884
vt 0.4210936389363642 0.649785085479265
vt 0.4059606675151387 0.6508962430841269
vt 0.39514887322669134 0.6626242233175914
vt 0.4210936389363642 0.649785085479265
vt 0.4335521998650793 0.6307423452637393
vt 0.41345335983519377 0.6327062162465777
vt 0.4059606675151387 0.6508962430841269
vt 0.4335521998650793 0.6307423452637393
vt 0.44045702269448794 0.6073474866604196
vt 0.41756456007154885 0.6102746979785474
vt 0.41345335983519377 0.6327062162465777
vt 0.44045702269448794 0.6073474866604196
vt 0.44190891446629155 0.5816548990120586
vt 0.41842531209211503 0.5854512342988576
vt 0.41756456007154885 0.6102746979785474
vt 0.44190891446629155 0.5816548990120586
vt 0.43821706526336707 0.55542021071467
vt 0.416234075880953 0.5597592028067753
vt 0.41842531209211503 0.5854512342988576
vt 0.43821706526336707 0.55542021071467
vt 0.42978685222658064 0.5301884443698595
vt 0.41119904278754116 0.5345304073976909
vt 0.416234075880953 0.5597592028067753
vt 0.42978685222658064 0.5301884443698595
vt 0.41709274338937674 0.507420837305768
vt 0.4035338413366045 0.5110660285313993
vt 0.41119904278754116 0.5345304073976909
vt 0.41709274338937674 0.507420837305768
vt 0.4007214505067628 0.4886144467215816
vt 0.39349709814540057 0.4907915821102685
vt 0.4035338413366045 0.5110660285313993
vt 0.39349709814540057 0.4907915821102685
vt 0.4007214505067628 0.4886144467215816
vt 0.3814733563029239 0.4753767655151191
vt 0.39514887322669134 0.6626242233175914
vt 0.3857896968418376 0.6628637822580759
vt 0.3814733563029239 0.665458912290917
vt 0.39514887322669134 0.6626242233175914
vt 0.4059606675151387 0.6508962430841269
vt 0.3891666854279664 0.6514451926092595
vt 0.3857896968418376 0.6628637822580759
vt 0.4059606675151387 0.6508962430841269
vt 0.41345335983519377 0.6327062162465777
vt 0.39148884044733656 0.6336671281580477
vt 0.3891666854279664 0.6514451926092595
vt 0.41345335983519377 0.6327062162465777
vt 0.41756456007154885 0.6102746979785474
vt 0.3927567461445109 0.6116993930183574
vt 0.39148884044733656 0.6336671281580477
vt 0.41756456007154885 0.6102746979785474
vt 0.41842531209211503 0.5854512342988576
vt 0.3930216469071073 0.5872968859524517
vt 0.3927567461445109 0.6116993930183574
vt 0.41842531209211503 0.5854512342988576
vt 0.416234075880953 0.5597592028067753
vt 0.3923469035524939 0.5618746509954489
vt 0.3930216469071073 0.5872968859524517
vt 0.416234075880953 0.5597592028067753
vt 0.41119904278754116 0.5345304073976909
vt 0.3907917274135633 0.5366610846421653
vt 0.3923469035524939 0.5618746509954489
vt 0.41119904278754116 0.5345304073976909
vt 0.4035338413366045 0.5110660285313993
vt 0.3884113852442343 0.5128724953509185
vt 0.3907917274135633 0.5366610846421653
vt 0.4035338413366045 0.5110660285313993
vt 0.39349709814540057 0.4907915821102685
vt 0.38527103101255455 0.49188446964358723
vt 0.3884113852442343 0.5128724953509185
vt 0.38527103101255455 0.49188446964358723
vt 0.39349709814540057 0.4907915821102685
vt 0.3814733563029239 0.4753767655151191
vt 0.3857896968418376 0.6628637822580759
vt 0.37608592292459614 0.6628495608612484
vt 0.3814733563029239 0.665458912290917
vt 0.3857896968418376 0.6628637822580759
vt 0.3891666854279664 0.6514451926092595
vt 0.3718683219567516 0.651412745056662
vt 0.37608592292459614 0.6628495608612484
vt 0.3891666854279664 0.6514451926092595
vt 0.39148884044733656 0.6336671281580477
vt 0.36896679281565803 0.6336104996953944
vt 0.3718683219567516 0.651412745056662
vt 0.39148884044733656 0.6336671281580477
vt 0.3927567461445109 0.6116993930183574
vt 0.3673820872405334 0.6116155701800692
vt 0.36896679281565803 0.6336104996953944
vt 0.3927567461445109 0.6116993930183574
vt 0.3930216469071073 0.5872968859524517
vt 0.3670509571845431 0.5871883330284207
vt 0.3673820872405334 0.6116155701800692
vt 0.3930216469071073 0.5872968859524517
vt 0.3923469035524939 0.5618746509954489
vt 0.367894368910802 0.5617501213561976
vt 0.3670509571845431 0.5871883330284207
vt 0.3923469035524939 0.5618746509954489
vt 0.3907917274135633 0.5366610846421653
vt 0.3698379487854375 0.5365354066935765
vt 0.367894368910802 0.5617501213561976
vt 0.3907917274135633 0.5366610846421653
vt 0.3884113852442343 0.5128724953509185
vt 0.37281183389653555 0.5127656142606374
vt 0.3698379487854375 0.5365354066935765
vt 0.3884113852442343 0.5128724953509185
vt 0.38527103101255455 0.49188446964358723
vt 0.37673349326912203 0.4918195474282204
vt 0.37281183389653555 0.5127656142606374
vt 0.37673349326912203 0.4918195474282204
vt 0.38527103101255455 0.49188446964358723
vt 0.3814733563029239 0.4753767655151191
vt 0.37608592292459614 0.6628495608612484
vt 0.3668127188934542 0.6625824374089642
vt 0.3814733563029239 0.665458912290917
vt 0.37608592292459614 0.6628495608612484
vt 0.3718683219567516 0.651412745056662
vt 0.3552009541426547 0.6507999714818673
vt 0.3668127188934542 0.6625824374089642
vt 0.3718683219567516 0.651412745056662
vt 0.36896679281565803 0.6336104996953944
vt 0.3471428966139885 0.6325370664176553
vt 0.3552009541426547 0.6507999714818673
vt 0.36896679281565803 0.6336104996953944
vt 0.3673820872405334 0.6116155701800692
vt 0.34271765895333745 0.610023394679626
vt 0.3471428966139885 0.6325370664176553
vt 0.3673820872405334 0.6116155701800692
vt 0.3670509571845431 0.5871883330284207
vt 0.34179081426581 0.5851255387434277
vt 0.34271765895333745 0.610023394679626
vt 0.3670509571845431 0.5871883330284207
vt 0.367894368910802 0.5617501213561976
vt 0.3441500701070503 0.5593863037051285
vt 0.34179081426581 0.5851255387434277
vt 0.367894368910802 0.5617501213561976
vt 0.3698379487854375 0.5365354066935765
vt 0.34956826065905966 0.5341557640452821
vt 0.3441500701070503 0.5593863037051285
vt 0.3698379487854375 0.5365354066935765
vt 0.37281183389653555 0.5127656142606374
vt 0.35780896992419486 0.5107496045108255
vt 0.34956826065905966 0.5341557640452821
vt 0.37281183389653555 0.5127656142606374
vt 0.37673349326912203 0.4918195474282204
vt 0.3685850644510313 0.4906011091258844
vt 0.35780896992419486 0.5107496045108255
vt 0.3685850644510313 0.4906011091258844
vt 0.37673349326912203 0.4918195474282204
vt 0.3814733563029239 0.4753767655151191
vt 0.3668127188934542 0.6625824374089642
vt 0.3587348717045415 0.6620793437178315
vt 0.3814733563029239 0.665458912290917
vt 0.3668127188934542 0.6625824374089642
vt 0.3552009541426547 0.6507999714818673
vt 0.340326224173625 0.6496285911580443
vt 0.3587348717045415 0.6620793437178315
vt 0.3552009541426547 0.6507999714818673
vt 0.3471428966139885 0.6325370664176553
vt 0.3273381197195554 0.6304637081682802
vt 0.340326224173625 0.6496285911580443
vt 0.3471428966139885 0.6325370664176553
vt 0.34271765895333745 0.610023394679626
vt 0.3201295823134775 0.6069304755282972
vt 0.3273381197195554 0.6304637081682802
vt 0.34271765895333745 0.610023394679626
vt 0.34179081426581 0.5851255387434277
vt 0.318612898127769 0.58111361010915
vt 0.3201295823134775 0.6069304755282972
vt 0.34179081426581 0.5851255387434277
vt 0.3441500701070503 0.5593863037051285
vt 0.3224688666544302 0.5548028917655817
vt 0.318612898127769 0.58111361010915
vt 0.3441500701070503 0.5593863037051285
vt 0.34956826065905966 0.5341557640452821
vt 0.33126601356487123 0.529573768854431
vt 0.3224688666544302 0.5548028917655817
vt 0.34956826065905966 0.5341557640452821
vt 0.35780896992419486 0.5107496045108255
vt 0.34449214565890074 0.5069086712012707
vt 0.33126601356487123 0.529573768854431
vt 0.35780896992419486 0.5107496045108255
vt 0.3685850644510313 0.4906011091258844
vt 0.361513297045077 0.4883115238467517
vt 0.34449214565890074 0.5069086712012707
vt 0.361513297045077 0.4883115238467517
vt 0.3685850644510313 0.4906011091258844
vt 0.3814733563029239 0.4753767655151191
vt 0.3587348717045415 0.6620793437178315
vt 0.35258089348938393 0.661374437761978
vt 0.3814733563029239 0.665458912290917
vt 0.3587348717045415 0.6620793437178315
vt 0.340326224173625 0.6496285911580443
vt 0.32846293785998787 0.6479482016071985
vt 0.35258089348938393 0.661374437761978
vt 0.340326224173625 0.6496285911580443
vt 0.3273381197195554 0.6304637081682802
vt 0.31103902482506746 0.6274393743502407
vt 0.32846293785998787 0.6479482016071985
vt 0.3273381197195554 0.6304637081682802
vt 0.3201295823134775 0.6069304755282972
vt 0.30121871771944236 0.6023768873194586
vt 0.31103902482506746 0.6274393743502407
vt 0.3201295823134775 0.6069304755282972
vt 0.318612898127769 0.58111361010915
vt 0.29913866651981075 0.5751954437887674
vt 0.30121871771944236 0.6023768873194586
vt 0.318612898127769 0.58111361010915
vt 0.3224688666544302 0.5548028917655817
vt 0.3044174468199002 0.5480752080500864
vt 0.29913866651981075 0.5751954437887674
vt 0.3224688666544302 0.5548028917655817
vt 0.33126601356487123 0.529573768854431
vt 0.31634472515194473 0.5229238380366947
vt 0.3044174468199002 0.5480752080500864
vt 0.33126601356487123 0.529573768854431
vt 0.34449214565890074 0.5069086712012707
vt 0.3339794367227674 0.5014280456636754
vt 0.31634472515194473 0.5229238380366947
vt 0.34449214565890074 0.5069086712012707
vt 0.361513297045077 0.4883115238467517
vt 0.35616367648506514 0.48511484717431985
vt 0.3339794367227674 0.5014280456636754
vt 0.35616367648506514 0.48511484717431985
vt 0.361513297045077 0.4883115238467517
vt 0.3814733563029239 0.4753767655151191
vt 0.35258089348938393 0.661374437761978
vt 0.34899800065948794 0.6605206760217412
vt 0.3814733563029239 0.665458912290917
vt 0.35258089348938393 0.661374437761978
vt 0.32846293785998787 0.6479482016071985
vt 0.32086832753990013 0.6458492995478722
vt 0.34899800065948794 0.6605206760217412
vt 0.32846293785998787 0.6479482016071985
vt 0.31103902482506746 0.6274393743502407
vt 0.2999389020386755 0.6235765588431731
vt 0.32086832753990013 0.6458492995478722
vt 0.31103902482506746 0.6274393743502407
vt 0.30121871771944236 0.6023768873194586
vt 0.2879100345222713 0.5964870675459049
vt 0.2999389020386755 0.6235765588431731
vt 0.30121871771944236 0.6023768873194586
vt 0.29913866651981075 0.5751954437887674
vt 0.28534018714395204 0.5675201325671706
vt 0.2879100345222713 0.5964870675459049
vt 0.29913866651981075 0.5751954437887674
vt 0.3044174468199002 0.5480752080500864
vt 0.29184690053119827 0.5394089854247602
vt 0.28534018714395204 0.5675201325671706
vt 0.3044174468199002 0.5480752080500864
vt 0.31634472515194473 0.5229238380366947
vt 0.3063673975376664 0.5144878220153956
vt 0.29184690053119827 0.5394089854247602
vt 0.31634472515194473 0.5229238380366947
vt 0.3339794367227674 0.5014280456636754
vt 0.3273871195710315 0.49463055090919184
vt 0.3063673975376664 0.5144878220153956
vt 0.3339794367227674 0.5014280456636754
vt 0.35616367648506514 0.48511484717431985
vt 0.35309608794966935 0.4812607684312382
vt 0.3273871195710315 0.49463055090919184
vt 0.35309608794966935 0.4812607684312382
vt 0.35616367648506514 0.48511484717431985
vt 0.3814733563029239 0.4753767655151191
vt 0.34899800065948794 0.6605206760217412
vt 0.3484809711016561 0.6595903994105219
vt 0.3814733563029239 0.665458912290917
vt 0.34899800065948794 0.6605206760217412
vt 0.32086832753990013 0.6458492995478722
vt 0.3187321183293674 0.643478852342781
vt 0.3484809711016561 0.6595903994105219
vt 0.32086832753990013 0.6458492995478722
vt 0.2999389020386755 0.6235765588431731
vt 0.29585302706524386 0.6190958912623772
vt 0.3187321183293674 0.643478852342781
vt 0.2999389020386755 0.6235765588431731
vt 0.2879100345222713 0.5964870675459049
vt 0.2824038342979918 0.589549324797342
vt 0.29585302706524386 0.6190958912623772
vt 0.2879100345222713 0.5964870675459049
vt 0.28534018714395204 0.5675201325671706
vt 0.27950148132408426 0.558449453361775
vt 0.2824038342979918 0.589549324797342
vt 0.28534018714395204 0.5675201325671706
vt 0.29184690053119827 0.5394089854247602
vt 0.2868301229462536 0.5292521194506357
vt 0.27950148132408426 0.558449453361775
vt 0.29184690053119827 0.5394089854247602
vt 0.3063673975376664 0.5144878220153956
vt 0.3029499654737743 0.504782482049475
vt 0.2868301229462536 0.5292521194506357
vt 0.3063673975376664 0.5144878220153956
vt 0.3273871195710315 0.49463055090919184
vt 0.32572645927417937 0.48701716525346417
vt 0.3029499654737743 0.504782482049475
vt 0.3273871195710315 0.49463055090919184
vt 0.35309608794966935 0.4812607684312382
vt 0.35272250073370237 0.4770831288665356
vt 0.32572645927417937 0.48701716525346417
vt 0.35272250073370237 0.4770831288665356
vt 0.35309608794966935 0.4812607684312382
vt 0.3814733563029239 0.4753767655151191
vt 0.3484809711016561 0.6595903994105219
vt 0.3512779710687982 0.6586730118959424
vt 0.3814733563029239 0.665458912290917
vt 0.3484809711016561 0.6595903994105219
vt 0.3187321183293674 0.643478852342781
vt 0.3229532505288332 0.6410512318666663
vt 0.3512779710687982 0.6586730118959424
vt 0.3187321183293674 0.643478852342781
vt 0.29585302706524386 0.6190958912623772
vt 0.3004216106797675 0.6143718031090533
vt 0.3229532505288332 0.6410512318666663
vt 0.29585302706524386 0.6190958912623772
vt 0.2824038342979918 0.589549324797342
vt 0.2868600241214973 0.5821085362615687
vt 0.3004216106797675 0.6143718031090533
vt 0.2824038342979918 0.589549324797342
vt 0.27950148132408426 0.558449453361775
vt 0.2839018647327932 0.5486850984543711
vt 0.2868600241214973 0.5821085362615687
vt 0.27950148132408426 0.558449453361775
vt 0.2868301229462536 0.5292521194506357
vt 0.2913497273647664 0.5184199303305375
vt 0.2839018647327932 0.5486850984543711
vt 0.2868301229462536 0.5292521194506357
vt 0.3029499654737743 0.504782482049475
vt 0.3074823909391701 0.4946417544689985
vt 0.2913497273647664 0.5184199303305375
vt 0.3029499654737743 0.504782482049475
vt 0.32572645927417937 0.48701716525346417
vt 0.3297097146183862 0.4792891147563214
vt 0.3074823909391701 0.4946417544689985
vt 0.32572645927417937 0.48701716525346417
vt 0.35272250073370237 0.4770831288665356
vt 0.35523011378342034 0.4729855064374595
vt 0.3297097146183862 0.4792891147563214
vt 0.35523011378342034 0.4729855064374595
vt 0.35272250073370237 0.4770831288665356
vt 0.3814733563029239 0.4753767655151191
vt 0.3512779710687982 0.6586730118959424
vt 0.3572921942265802 0.657867865198668
vt 0.3814733563029239 0.665458912290917
vt 0.3512779710687982 0.6586730118959424
vt 0.3229532505288332 0.6410512318666663
vt 0.33380928346887345 0.6388428325981248
vt 0.3572921942265802 0.657867865198668
vt 0.3229532505288332 0.6410512318666663
vt 0.3004216106797675 0.6143718031090533
vt 0.3145488968339015 0.6099501495856744
vt 0.33380928346887345 0.6388428325981248
vt 0.3004216106797675 0.6143718031090533
vt 0.2868600241214973 0.5821085362615687
vt 0.3026985307997497 0.5750237772656391
vt 0.3145488968339015 0.6099501495856744
vt 0.2868600241214973 0.5821085362615687
vt 0.2839018647327932 0.5486850984543711
vt 0.30008728672711527 0.5393531578959241
vt 0.3026985307997497 0.5750237772656391
vt 0.2839018647327932 0.5486850984543711
vt 0.2913497273647664 0.5184199303305375
vt 0.3066435778770537 0.508164358968227
vt 0.30008728672711527 0.5393531578959241
vt 0.2913497273647664 0.5184199303305375
vt 0.3074823909391701 0.4946417544689985
vt 0.3206413512269886 0.48523454230131025
vt 0.3066435778770537 0.508164358968227
vt 0.3074823909391701 0.4946417544689985
vt 0.3297097146183862 0.4792891147563214
vt 0.3394833024342193 0.47231876739921475
vt 0.3206413512269886 0.48523454230131025
vt 0.3297097146183862 0.4792891147563214
vt 0.35523011378342034 0.4729855064374595
vt 0.3605062529530235 0.4694071933396482
vt 0.3394833024342193 0.47231876739921475
vt 0.3605062529530235 0.4694071933396482
vt 0.35523011378342034 0.4729855064374595
vt 0.3814733563029239 0.4753767655151191
vt 0.3572921942265802 0.657867865198668
vt 0.3660149894621956 0.6572716079104759
vt 0.3814733563029239 0.665458912290917
vt 0.3572921942265802 0.657867865198668
vt 0.33380928346887345 0.6388428325981248
vt 0.35061295431907435 0.637158182462561
vt 0.3660149894621956 0.6572716079104759
vt 0.33380928346887345 0.6388428325981248
vt 0.3145488968339015 0.6099501495856744
vt 0.3376829426248593 0.6064944416203146
vt 0.35061295431907435 0.637158182462561
vt 0.3145488968339015 0.6099501495856744
vt 0.3026985307997497 0.5750237772656391
vt 0.3295902339470169 0.5694038007897766
vt 0.3376829426248593 0.6064944416203146
vt 0.3026985307997497 0.5750237772656391
vt 0.30008728672711527 0.5393531578959241
vt 0.32779267398891027 0.5319263413326604
vt 0.3295902339470169 0.5694038007897766
vt 0.30008728672711527 0.5393531578959241
vt 0.3066435778770537 0.508164358968227
vt 0.3322961218375959 0.5000692827444051
vt 0.32779267398891027 0.5319263413326604
vt 0.3066435778770537 0.508164358968227
vt 0.3206413512269886 0.48523454230131025
vt 0.34180254006052574 0.47793847162940495
vt 0.3322961218375959 0.5000692827444051
vt 0.3206413512269886 0.48523454230131025
vt 0.3394833024342193 0.47231876739921475
vt 0.35437046113912984 0.4670394115733226
vt 0.34180254006052574 0.47793847162940495
vt 0.3394833024342193 0.47231876739921475
vt 0.3605062529530235 0.4694071933396482
vt 0.3680927973091382 0.4667680027645803
vt 0.35437046113912984 0.4670394115733226
vt 0.3680927973091382 0.4667680027645803
vt 0.3605062529530235 0.4694071933396482
vt 0.3814733563029239 0.4753767655151191
vt 0.3660149894621956 0.6572716079104759
vt 0.376532892956712 0.6569616632050317
vt 0.3814733563029239 0.665458912290917
vt 0.3660149894621956 0.6572716079104759
vt 0.35061295431907435 0.637158182462561
vt 0.37154436544241765 0.6362653217975781
vt 0.376532892956712 0.6569616632050317
vt 0.35061295431907435 0.637158182462561
vt 0.3376829426248593 0.6064944416203146
vt 0.3673046005656818 0.6046330237327245
vt 0.37154436544241765 0.6362653217975781
vt 0.3376829426248593 0.6064944416203146
vt 0.3295902339470169 0.5694038007897766
vt 0.36462650648260386 0.5663458833194882
vt 0.3673046005656818 0.6046330237327245
vt 0.3295902339470169 0.5694038007897766
vt 0.32779267398891027 0.5319263413326604
vt 0.36402906133636914 0.5278762384886617
vt 0.36462650648260386 0.5663458833194882
vt 0.32779267398891027 0.5319263413326604
vt 0.3322961218375959 0.5000692827444051
vt 0.3655240719896845 0.4956794528577253
vt 0.36402906133636914 0.5278762384886617
vt 0.3322961218375959 0.5000692827444051
vt 0.34180254006052574 0.47793847162940495
vt 0.36866061700708785 0.4740286324161691
vt 0.3655240719896845 0.4956794528577253
vt 0.34180254006052574 0.47793847162940495
vt 0.35437046113912984 0.4670394115733226
vt 0.37276752849712536 0.4642545437765013
vt 0.36866061700708785 0.4740286324161691
vt 0.35437046113912984 0.4670394115733226
vt 0.3680927973091382 0.4667680027645803
vt 0.377200791522581 0.46539970385853247
vt 0.37276752849712536 0.4642545437765013
vt 0.377200791522581 0.46539970385853247
vt 0.3680927973091382 0.4667680027645803
vt 0.3814733563029239 0.4753767655151191
vt 0.376532892956712 0.6569616632050317
vt 0.3876351834546401 0.6569802807252546
vt 0.3814733563029239 0.665458912290917
vt 0.376532892956712 0.6569616632050317
vt 0.37154436544241765 0.6362653217975781
vt 0.39385197629554536 0.6363192910065351
vt 0.3876351834546401 0.6569802807252546
vt 0.37154436544241765 0.6362653217975781
vt 0.3673046005656818 0.6046330237327245
vt 0.3991317177413268 0.6047461352809761
vt 0.39385197629554536 0.6363192910065351
vt 0.3673046005656818 0.6046330237327245
vt 0.36462650648260386 0.5663458833194882
vt 0.40246486536582804 0.5665323215732678
vt 0.3991317177413268 0.6047461352809761
vt 0.36462650648260386 0.5663458833194882
vt 0.36402906133636914 0.5278762384886617
vt 0.40320824749479833 0.528123352405446
vt 0.40246486536582804 0.5665323215732678
vt 0.36402906133636914 0.5278762384886617
vt 0.3655240719896845 0.4956794528577253
vt 0.40134791839802875 0.4959467983508684
vt 0.40320824749479833 0.528123352405446
vt 0.3655240719896845 0.4956794528577253
vt 0.36866061700708785 0.4740286324161691
vt 0.39744347506609656 0.4742658176332214
vt 0.40134791839802875 0.4959467983508684
vt 0.36866061700708785 0.4740286324161691
vt 0.37276752849712536 0.4642545437765013
vt 0.3923281112746444 0.46442261781379446
vt 0.39744347506609656 0.4742658176332214
vt 0.37276752849712536 0.4642545437765013
vt 0.377200791522581 0.46539970385853247
vt 0.3868024564635587 0.4654818244966632
vt 0.3923281112746444 0.46442261781379446
vt 0.3868024564635587 0.4654818244966632
vt 0.377200791522581 0.46539970385853247
vt 0.3814733563029239 0.4753767655151191
vt 0.3876351834546401 0.6569802807252546
vt 0.3980094191488106 0.6573248835865428
vt 0.3814733563029239 0.665458912290917
vt 0.3876351834546401 0.6569802807252546
vt 0.39385197629554536 0.6363192910065351
vt 0.41444750910452477 0.6373104588414102
vt 0.3980094191488106 0.6573248835865428
vt 0.39385197629554536 0.6363192910065351
vt 0.3991317177413268 0.6047461352809761
vt 0.42821831640338504 0.6068098166308951
vt 0.41444750910452477 0.6373104588414102
vt 0.3991317177413268 0.6047461352809761
vt 0.40246486536582804 0.5665323215732678
vt 0.43682384796241835 0.5699197522591575
vt 0.42821831640338504 0.6068098166308951
vt 0.40246486536582804 0.5665323215732678
vt 0.40320824749479833 0.528123352405446
vt 0.43873391672162654 0.5326090706288361
vt 0.43682384796241835 0.5699197522591575
vt 0.40320824749479833 0.528123352405446
vt 0.40134791839802875 0.4959467983508684
vt 0.43394764011977927 0.5008109913637528
vt 0.43873391672162654 0.5326090706288361
vt 0.40134791839802875 0.4959467983508684
vt 0.39744347506609656 0.4742658176332214
vt 0.42383370064242504 0.4786023013694318
vt 0.43394764011977927 0.5008109913637528
vt 0.39744347506609656 0.4742658176332214
vt 0.3923281112746444 0.46442261781379446
vt 0.41044070931660526 0.4675152764349282
vt 0.42383370064242504 0.4786023013694318
vt 0.3923281112746444 0.46442261781379446
vt 0.3868024564635587 0.4654818244966632
vt 0.3957889636295763 0.4670034439392201
vt 0.41044070931660526 0.4675152764349282
vt 0.3957889636295763 0.4670034439392201
vt 0.3868024564635587 0.4654818244966632
vt 0.3814733563029239 0.4753767655151191
vn 0.04834090820338489 0.9876883405951379 0.14877801734965782
vn 0.14029077970429513 0.8910065241883678 0.43177062311338943
vn 0.21850801222441069 0.7071067811865475 0.6724985119639575
vn 0.2753361580731586 0.45399049973954675 0.8473975608908426
vn 0.30521248238988885 0.15643446504023106 0.9393474323917528
vn 0.30521248238988913 -0.15643446504023067 0.9393474323917528
vn 0.27533615807315837 -0.45399049973954725 0.8473975608908426
vn 0.21850801222441066 -0.7071067811865472 0.6724985119639576
vn 0.14029077970429515 -0.891006524188368 0.4317706231133891
vn 0.04834090820338504 -0.9876883405951379 0.14877801734965812
vn 0.09194987150091008 0.9876883405951379 0.12655814072350025
vn 0.26684892042779557 0.8910065241883678 0.36728602957406864
vn 0.4156269377774534 0.7071067811865475 0.5720614028176846
vn 0.5237204946142995 0.4539904997395465 0.7208394201673424
vn 0.5805486404630471 0.15643446504023134 0.7990566526874576
vn 0.5805486404630473 -0.15643446504023084 0.7990566526874576
vn 0.5237204946142993 -0.4539904997395471 0.7208394201673423
vn 0.4156269377774538 -0.7071067811865471 0.5720614028176845
vn 0.2668489204277953 -0.8910065241883679 0.36728602957406836
vn 0.09194987150091026 -0.9876883405951379 0.12655814072350055
vn 0.12655814072350027 0.9876883405951379 0.09194987150091005
vn 0.3672860295740687 0.8910065241883678 0.26684892042779546
vn 0.5720614028176845 0.7071067811865475 0.4156269377774537
vn 0.7208394201673426 0.4539904997395466 0.5237204946142994
vn 0.7990566526874578 0.15643446504023134 0.580548640463047
vn 0.7990566526874576 -0.15643446504023112 0.5805486404630471
vn 0.7208394201673423 -0.4539904997395469 0.5237204946142995
vn 0.5720614028176844 -0.7071067811865474 0.4156269377774537
vn 0.36728602957406853 -0.891006524188368 0.26684892042779557
vn 0.12655814072350058 -0.9876883405951379 0.09194987150091026
vn 0.1487780173496578 0.9876883405951379 0.048340908203384984
vn 0.43177062311338943 0.8910065241883678 0.14029077970429524
vn 0.6724985119639574 0.7071067811865475 0.21850801222441066
vn 0.8473975608908428 0.45399049973954647 0.27533615807315903
vn 0.9393474323917526 0.15643446504023134 0.30521248238988924
vn 0.9393474323917528 -0.15643446504023087 0.3052124823898894
vn 0.8473975608908427 -0.45399049973954686 0.27533615807315853
vn 0.6724985119639576 -0.7071067811865472 0.2185080122244109
vn 0.431770623113389 -0.8910065241883679 0.14029077970429527
vn 0.1487780173496581 -0.9876883405951379 0.04834090820338508
vn 0.15643446504023073 0.9876883405951379 -1.0918536538997185e-16
vn 0.45399049973954714 0.8910065241883679 -1.8043462260634327e-16
vn 0.7071067811865477 0.7071067811865475 0
vn 0.8910065241883679 0.4539904997395467 -3.903015533129311e-16
vn 0.9876883405951379 0.1564344650402311 -4.2422724068386677e-16
vn 0.9876883405951378 -0.15643446504023067 -4.460589180719212e-16
vn 0.8910065241883677 -0.4539904997395472 0
vn 0.7071067811865479 -0.7071067811865472 -3.6086924521268664e-16
vn 0.45399049973954675 -0.8910065241883679 -3.4320704719003914e-16
vn 0.15643446504023104 -0.9876883405951378 -1.0918536538997202e-16
vn 0.14877801734965782 0.9876883405951379 -0.04834090820338482
vn 0.4317706231133894 0.8910065241883679 -0.14029077970429515
vn 0.6724985119639574 0.7071067811865476 -0.21850801222441088
vn 0.8473975608908428 0.4539904997395464 -0.2753361580731584
vn 0.9393474323917529 0.15643446504023112 -0.3052124823898887
vn 0.9393474323917529 -0.15643446504023067 -0.3052124823898888
vn 0.8473975608908425 -0.4539904997395468 -0.27533615807315864
vn 0.6724985119639576 -0.7071067811865474 -0.21850801222441046
vn 0.4317706231133891 -0.8910065241883679 -0.14029077970429507
vn 0.14877801734965815 -0.9876883405951379 -0.04834090820338497
vn 0.12655814072350025 0.9876883405951379 -0.09194987150091007
vn 0.36728602957406875 0.8910065241883678 -0.26684892042779557
vn 0.5720614028176846 0.7071067811865475 -0.41562693777745335
vn 0.7208394201673423 0.4539904997395467 -0.5237204946142995
vn 0.7990566526874578 0.15643446504023123 -0.5805486404630471
vn 0.7990566526874576 -0.15643446504023073 -0.5805486404630473
vn 0.7208394201673423 -0.45399049973954714 -0.5237204946142991
vn 0.5720614028176846 -0.7071067811865472 -0.4156269377774538
vn 0.3672860295740684 -0.8910065241883679 -0.2668489204277953
vn 0.12655814072350058 -0.9876883405951379 -0.09194987150091026
vn 0.09194987150091005 0.9876883405951379 -0.12655814072350025
vn 0.2668489204277955 0.8910065241883678 -0.36728602957406864
vn 0.41562693777745363 0.7071067811865475 -0.5720614028176844
vn 0.5237204946142995 0.4539904997395465 -0.7208394201673425
vn 0.580548640463047 0.15643446504023137 -0.7990566526874578
vn 0.5805486404630473 -0.15643446504023115 -0.7990566526874577
vn 0.5237204946142996 -0.45399049973954686 -0.7208394201673421
vn 0.4156269377774537 -0.7071067811865474 -0.5720614028176844
vn 0.26684892042779557 -0.891006524188368 -0.36728602957406853
vn 0.09194987150091026 -0.9876883405951379 -0.12655814072350055
vn 0.048340908203384894 0.9876883405951379 -0.14877801734965784
vn 0.14029077970429524 0.8910065241883678 -0.43177062311338943
vn 0.2185080122244106 0.7071067811865476 -0.6724985119639573
vn 0.27533615807315864 0.45399049973954636 -0.8473975608908427
vn 0.30521248238988896 0.15643446504023123 -0.9393474323917528
vn 0.305212482389889 -0.15643446504023079 -0.9393474323917529
vn 0.27533615807315853 -0.45399049973954686 -0.8473975608908427
vn 0.21850801222441069 -0.7071067811865474 -0.6724985119639576
vn 0.14029077970429496 -0.8910065241883681 -0.43177062311338915
vn 0.04834090820338499 -0.9876883405951379 -0.14877801734965815
vn 1.0918536538997192e-16 0.9876883405951379 -0.1564344650402307
vn 1.8043462260634337e-16 0.8910065241883678 -0.4539904997395471
vn 0 0.7071067811865476 -0.7071067811865476
vn 3.9030155331293153e-16 0.4539904997395465 -0.8910065241883682
vn 4.507414432266087e-16 0.1564344650402311 -0.9876883405951379
vn 4.460589180719215e-16 -0.15643446504023067 -0.9876883405951378
vn 0 -0.45399049973954686 -0.8910065241883678
vn 3.6086924521268683e-16 -0.7071067811865474 -0.7071067811865477
vn 3.432070471900394e-16 -0.8910065241883679 -0.4539904997395467
vn 1.0918536538997216e-16 -0.9876883405951379 -0.1564344650402311
vn -0.04834090820338484 0.9876883405951379 -0.14877801734965782
vn -0.14029077970429507 0.8910065241883679 -0.43177062311338954
vn -0.21850801222441016 0.7071067811865475 -0.6724985119639576
vn -0.27533615807315814 0.4539904997395467 -0.8473975608908427
vn -0.30521248238988885 0.15643446504023112 -0.9393474323917529
vn -0.30521248238988896 -0.15643446504023067 -0.9393474323917528
vn -0.2753361580731578 -0.45399049973954714 -0.8473975608908426
vn -0.21850801222441044 -0.7071067811865472 -0.6724985119639577
vn -0.14029077970429515 -0.8910065241883679 -0.43177062311338915
vn -0.048340908203385 -0.9876883405951379 -0.14877801734965815
vn -0.09194987150090998 0.9876883405951378 -0.12655814072350025
vn -0.26684892042779534 0.8910065241883679 -0.3672860295740688
vn -0.41562693777745324 0.7071067811865476 -0.5720614028176845
vn -0.5237204946142991 0.4539904997395465 -0.7208394201673427
vn -0.5805486404630467 0.15643446504023092 -0.7990566526874582
vn -0.5805486404630467 -0.15643446504023076 -0.7990566526874583
vn -0.5237204946142991 -0.45399049973954664 -0.7208394201673426
vn -0.41562693777745335 -0.7071067811865474 -0.5720614028176847
vn -0.26684892042779496 -0.8910065241883679 -0.3672860295740687
vn -0.09194987150091018 -0.9876883405951378 -0.12655814072350058
vn -0.12655814072350027 0.9876883405951379 -0.09194987150091005
vn -0.3672860295740687 0.8910065241883678 -0.26684892042779546
vn -0.5720614028176844 0.7071067811865475 -0.41562693777745363
vn -0.7208394201673425 0.4539904997395466 -0.5237204946142993
vn -0.7990566526874577 0.1564344650402311 -0.5805486404630471
vn -0.7990566526874578 -0.15643446504023087 -0.5805486404630472
vn -0.720839420167342 -0.4539904997395469 -0.5237204946142995
vn -0.5720614028176844 -0.7071067811865474 -0.4156269377774537
vn -0.36728602957406875 -0.8910065241883679 -0.26684892042779546
vn -0.12655814072350055 -0.9876883405951379 -0.09194987150091025
vn -0.14877801734965782 0.9876883405951379 -0.04834090820338489
vn -0.4317706231133893 0.8910065241883678 -0.1402907797042952
vn -0.6724985119639574 0.7071067811865475 -0.21850801222441057
vn -0.847397560890843 0.4539904997395464 -0.27533615807315864
vn -0.9393474323917528 0.15643446504023123 -0.30521248238988896
vn -0.9393474323917529 -0.15643446504023079 -0.305212482389889
vn -0.8473975608908427 -0.45399049973954686 -0.27533615807315853
vn -0.6724985119639576 -0.7071067811865474 -0.21850801222441066
vn -0.4317706231133891 -0.891006524188368 -0.140290779704295
vn -0.14877801734965815 -0.9876883405951379 -0.04834090820338499
vn -0.1564344650402307 0.9876883405951379 -1.0918536538997192e-16
vn -0.45399049973954697 0.8910065241883678 -1.8043462260634337e-16
vn -0.7071067811865476 0.7071067811865476 0
vn -0.8910065241883682 0.4539904997395465 -3.9030155331293153e-16
vn -0.9876883405951377 0.1564344650402311 -4.507414432266087e-16
vn -0.9876883405951378 -0.15643446504023065 -4.460589180719215e-16
vn -0.8910065241883678 -0.45399049973954686 0
vn -0.7071067811865478 -0.7071067811865474 -3.6086924521268693e-16
vn -0.4539904997395467 -0.8910065241883679 -3.432070471900394e-16
vn -0.1564344650402311 -0.9876883405951379 -1.0918536538997216e-16
vn -0.14877801734965782 0.9876883405951379 0.04834090820338488
vn -0.43177062311338954 0.8910065241883679 0.14029077970429513
vn -0.6724985119639575 0.7071067811865475 0.2185080122244106
vn -0.8473975608908428 0.4539904997395468 0.27533615807315853
vn -0.9393474323917529 0.1564344650402311 0.3052124823898888
vn -0.9393474323917529 -0.15643446504023065 0.305212482389889
vn -0.8473975608908424 -0.45399049973954714 0.2753361580731583
vn -0.6724985119639577 -0.7071067811865471 0.21850801222441063
vn -0.4317706231133892 -0.8910065241883679 0.14029077970429513
vn -0.14877801734965818 -0.9876883405951379 0.04834090820338504
vn -0.12655814072350025 0.9876883405951379 0.09194987150091005
vn -0.36728602957406875 0.8910065241883678 0.26684892042779546
vn -0.5720614028176847 0.7071067811865475 0.4156269377774532
vn -0.7208394201673425 0.4539904997395467 0.5237204946142994
vn -0.7990566526874576 0.1564344650402312 0.5805486404630471
vn -0.7990566526874578 -0.15643446504023073 0.5805486404630469
vn -0.7208394201673424 -0.4539904997395472 0.523720494614299
vn -0.5720614028176846 -0.7071067811865471 0.41562693777745374
vn -0.3672860295740686 -0.891006524188368 0.2668489204277953
vn -0.1265581407235006 -0.9876883405951379 0.09194987150091025
vn -0.09194987150091008 0.9876883405951379 0.12655814072350025
vn -0.26684892042779573 0.8910065241883678 0.3672860295740686
vn -0.41562693777745374 0.7071067811865475 0.5720614028176843
vn -0.5237204946142997 0.45399049973954647 0.7208394201673423
vn -0.5805486404630475 0.15643446504023115 0.7990566526874576
vn -0.5805486404630473 -0.1564344650402305 0.7990566526874576
vn -0.5237204946142996 -0.45399049973954714 0.7208394201673419
vn -0.4156269377774539 -0.7071067811865474 0.5720614028176843
vn -0.26684892042779557 -0.8910065241883679 0.3672860295740686
vn -0.0919498715009103 -0.9876883405951379 0.12655814072350052
vn -0.04834090820338489 0.9876883405951379 0.1487780173496578
vn -0.14029077970429524 0.8910065241883678 0.43177062311338943
vn -0.21850801222441066 0.7071067811865475 0.6724985119639574
vn -0.27533615807315864 0.45399049973954636 0.8473975608908427
vn -0.30521248238988896 0.15643446504023123 0.9393474323917528
vn -0.305212482389889 -0.15643446504023079 0.9393474323917529
vn -0.27533615807315853 -0.45399049973954686 0.8473975608908425
vn -0.21850801222441066 -0.7071067811865472 0.6724985119639576
vn -0.14029077970429502 -0.891006524188368 0.43177062311338915
vn -0.048340908203385 -0.9876883405951379 0.14877801734965815
vn -1.0918536538997181e-16 0.9876883405951379 0.1564344650402307
vn -1.8043462260634322e-16 0.8910065241883679 0.4539904997395471
vn 0 0.7071067811865476 0.7071067811865476
vn -3.903015533129312e-16 0.45399049973954647 0.8910065241883682
vn -4.507414432266084e-16 0.15643446504023112 0.9876883405951379
vn -4.460589180719211e-16 -0.15643446504023067 0.9876883405951378
vn 0 -0.45399049973954686 0.8910065241883678
vn -3.6086924521268644e-16 -0.7071067811865474 0.7071067811865478
vn -3.4320704719003905e-16 -0.891006524188368 0.45399049973954664
vn -1.0918536538997202e-16 -0.9876883405951378 0.15643446504023106
usemtl m_f15f954d-41d6-aa46-83c6-4d5c80e23f1f
f 3/1/1 12/2/1 2/3/1
f 3/4/2 4/5/2 13/6/2 12/7/2
f 4/8/3 5/9/3 14/10/3 13/11/3
f 5/12/4 6/13/4 15/14/4 14/15/4
f 6/16/5 7/17/5 16/18/5 15/19/5
f 7/20/6 8/21/6 17/22/6 16/23/6
f 8/24/7 9/25/7 18/26/7 17/27/7
f 9/28/8 10/29/8 19/30/8 18/31/8
f 10/32/9 11/33/9 20/34/9 19/35/9
f 20/36/10 11/37/10 1/38/10
f 12/39/11 21/40/11 2/41/11
f 12/42/12 13/43/12 22/44/12 21/45/12
f 13/46/13 14/47/13 23/48/13 22/49/13
f 14/50/14 15/51/14 24/52/14 23/53/14
f 15/54/15 16/55/15 25/56/15 24/57/15
f 16/58/16 17/59/16 26/60/16 25/61/16
f 17/62/17 18/63/17 27/64/17 26/65/17
f 18/66/18 19/67/18 28/68/18 27/69/18
f 19/70/19 20/71/19 29/72/19 28/73/19
f 29/74/20 20/75/20 1/76/20
f 21/77/21 30/78/21 2/79/21
f 21/80/22 22/81/22 31/82/22 30/83/22
f 22/84/23 23/85/23 32/86/23 31/87/23
f 23/88/24 24/89/24 33/90/24 32/91/24
f 24/92/25 25/93/25 34/94/25 33/95/25
f 25/96/26 26/97/26 35/98/26 34/99/26
f 26/100/27 27/101/27 36/102/27 35/103/27
f 27/104/28 28/105/28 37/106/28 36/107/28
f 28/108/29 29/109/29 38/110/29 37/111/29
f 38/112/30 29/113/30 1/114/30
f 30/115/31 39/116/31 2/117/31
f 30/118/32 31/119/32 40/120/32 39/121/32
f 31/122/33 32/123/33 41/124/33 40/125/33
f 32/126/34 33/127/34 42/128/34 41/129/34
f 33/130/35 34/131/35 43/132/35 42/133/35
f 34/134/36 35/135/36 44/136/36 43/137/36
f 35/138/37 36/139/37 45/140/37 44/141/37
f 36/142/38 37/143/38 46/144/38 45/145/38
f 37/146/39 38/147/39 47/148/39 46/149/39
f 47/150/40 38/151/40 1/152/40
f 39/153/41 48/154/41 2/155/41
f 39/156/42 40/157/42 49/158/42 48/159/42
f 40/160/43 41/161/43 50/162/43 49/163/43
f 41/164/44 42/165/44 51/166/44 50/167/44
f 42/168/45 43/169/45 52/170/45 51/171/45
f 43/172/46 44/173/46 53/174/46 52/175/46
f 44/176/47 45/177/47 54/178/47 53/179/47
f 45/180/48 46/181/48 55/182/48 54/183/48
f 46/184/49 47/185/49 56/186/49 55/187/49
f 56/188/50 47/189/50 1/190/50
f 48/191/51 57/192/51 2/193/51
f 48/194/52 49/195/52 58/196/52 57/197/52
f 49/198/53 50/199/53 59/200/53 58/201/53
f 50/202/54 51/203/54 60/204/54 59/205/54
f 51/206/55 52/207/55 61/208/55 60/209/55
f 52/210/56 53/211/56 62/212/56 61/213/56
f 53/214/57 54/215/57 63/216/57 62/217/57
f 54/218/58 55/219/58 64/220/58 63/221/58
f 55/222/59 56/223/59 65/224/59 64/225/59
f 65/226/60 56/227/60 1/228/60
f 57/229/61 66/230/61 2/231/61
f 57/232/62 58/233/62 67/234/62 66/235/62
f 58/236/63 59/237/63 68/238/63 67/239/63
f 59/240/64 60/241/64 69/242/64 68/243/64
f 60/244/65 61/245/65 70/246/65 69/247/65
f 61/248/66 62/249/66 71/250/66 70/251/66
f 62/252/67 63/253/67 72/254/67 71/255/67
f 63/256/68 64/257/68 73/258/68 72/259/68
f 64/260/69 65/261/69 74/262/69 73/263/69
f 74/264/70 65/265/70 1/266/70
f 66/267/71 75/268/71 2/269/71
f 66/270/72 67/271/72 76/272/72 75/273/72
f 67/274/73 68/275/73 77/276/73 76/277/73
f 68/278/74 69/279/74 78/280/74 77/281/74
f 69/282/75 70/283/75 79/284/75 78/285/75
f 70/286/76 71/287/76 80/288/76 79/289/76
f 71/290/77 72/291/77 81/292/77 80/293/77
f 72/294/78 73/295/78 82/296/78 81/297/78
f 73/298/79 74/299/79 83/300/79 82/301/79
f 83/302/80 74/303/80 1/304/80
f 75/305/81 84/306/81 2/307/81
f 75/308/82 76/309/82 85/310/82 84/311/82
f 76/312/83 77/313/83 86/314/83 85/315/83
f 77/316/84 78/317/84 87/318/84 86/319/84
f 78/320/85 79/321/85 88/322/85 87/323/85
f 79/324/86 80/325/86 89/326/86 88/327/86
f 80/328/87 81/329/87 90/330/87 89/331/87
f 81/332/88 82/333/88 91/334/88 90/335/88
f 82/336/89 83/337/89 92/338/89 91/339/89
f 92/340/90 83/341/90 1/342/90
f 84/343/91 93/344/91 2/345/91
f 84/346/92 85/347/92 94/348/92 93/349/92
f 85/350/93 86/351/93 95/352/93 94/353/93
f 86/354/94 87/355/94 96/356/94 95/357/94
f 87/358/95 88/359/95 97/360/95 96/361/95
f 88/362/96 89/363/96 98/364/96 97/365/96
f 89/366/97 90/367/97 99/368/97 98/369/97
f 90/370/98 91/371/98 100/372/98 99/373/98
f 91/374/99 92/375/99 101/376/99 100/377/99
f 101/378/100 92/379/100 1/380/100
f 93/381/101 102/382/101 2/383/101
f 93/384/102 94/385/102 103/386/102 102/387/102
f 94/388/103 95/389/103 104/390/103 103/391/103
f 95/392/104 96/393/104 105/394/104 104/395/104
f 96/396/105 97/397/105 106/398/105 105/399/105
f 97/400/106 98/401/106 107/402/106 106/403/106
f 98/404/107 99/405/107 108/406/107 107/407/107
f 99/408/108 100/409/108 109/410/108 108/411/108
f 100/412/109 101/413/109 110/414/109 109/415/109
f 110/416/110 101/417/110 1/418/110
f 102/419/111 111/420/111 2/421/111
f 102/422/112 103/423/112 112/424/112 111/425/112
f 103/426/113 104/427/113 113/428/113 112/429/113
f 104/430/114 105/431/114 114/432/114 113/433/114
f 105/434/115 106/435/115 115/436/115 114/437/115
f 106/438/116 107/439/116 116/440/116 115/441/116
f 107/442/117 108/443/117 117/444/117 116/445/117
f 108/446/118 109/447/118 118/448/118 117/449/118
f 109/450/119 110/451/119 119/452/119 118/453/119
f 119/454/120 110/455/120 1/456/120
f 111/457/121 120/458/121 2/459/121
f 111/460/122 112/461/122 121/462/122 120/463/122
f 112/464/123 113/465/123 122/466/123 121/467/123
f 113/468/124 114/469/124 123/470/124 122/471/124
f 114/472/125 115/473/125 124/474/125 123/475/125
f 115/476/126 116/477/126 125/478/126 124/479/126
f 116/480/127 117/481/127 126/482/127 125/483/127
f 117/484/128 118/485/128 127/486/128 126/487/128
f 118/488/129 119/489/129 128/490/129 127/491/129
f 128/492/130 119/493/130 1/494/130
f 120/495/131 129/496/131 2/497/131
f 120/498/132 121/499/132 130/500/132 129/501/132
f 121/502/133 122/503/133 131/504/133 130/505/133
f 122/506/134 123/507/134 132/508/134 131/509/134
f 123/510/135 124/511/135 133/512/135 132/513/135
f 124/514/136 125/515/136 134/516/136 133/517/136
f 125/518/137 126/519/137 135/520/137 134/521/137
f 126/522/138 127/523/138 136/524/138 135/525/138
f 127/526/139 128/527/139 137/528/139 136/529/139
f 137/530/140 128/531/140 1/532/140
f 129/533/141 138/534/141 2/535/141
f 129/536/142 130/537/142 139/538/142 138/539/142
f 130/540/143 131/541/143 140/542/143 139/543/143
f 131/544/144 132/545/144 141/546/144 140/547/144
f 132/548/145 133/549/145 142/550/145 141/551/145
f 133/552/146 134/553/146 143/554/146 142/555/146
f 134/556/147 135/557/147 144/558/147 143/559/147
f 135/560/148 136/561/148 145/562/148 144/563/148
f 136/564/149 137/565/149 146/566/149 145/567/149
f 146/568/150 137/569/150 1/570/150
f 138/571/151 147/572/151 2/573/151
f 138/574/152 139/575/152 148/576/152 147/577/152
f 139/578/153 140/579/153 149/580/153 148/581/153
f 140/582/154 141/583/154 150/584/154 149/585/154
f 141/586/155 142/587/155 151/588/155 150/589/155
f 142/590/156 143/591/156 152/592/156 151/593/156
f 143/594/157 144/595/157 153/596/157 152/597/157
f 144/598/158 145/599/158 154/600/158 153/601/158
f 145/602/159 146/603/159 155/604/159 154/605/159
f 155/606/160 146/607/160 1/608/160
f 147/609/161 156/610/161 2/611/161
f 147/612/162 148/613/162 157/614/162 156/615/162
f 148/616/163 149/617/163 158/618/163 157/619/163
f 149/620/164 150/621/164 159/622/164 158/623/164
f 150/624/165 151/625/165 160/626/165 159/627/165
f 151/628/166 152/629/166 161/630/166 160/631/166
f 152/632/167 153/633/167 162/634/167 161/635/167
f 153/636/168 154/637/168 163/638/168 162/639/168
f 154/640/169 155/641/169 164/642/169 163/643/169
f 164/644/170 155/645/170 1/646/170
f 156/647/171 165/648/171 2/649/171
f 156/650/172 157/651/172 166/652/172 165/653/172
f 157/654/173 158/655/173 167/656/173 166/657/173
f 158/658/174 159/659/174 168/660/174 167/661/174
f 159/662/175 160/663/175 169/664/175 168/665/175
f 160/666/176 161/667/176 170/668/176 169/669/176
f 161/670/177 162/671/177 171/672/177 170/673/177
f 162/674/178 163/675/178 172/676/178 171/677/178
f 163/678/179 164/679/179 173/680/179 172/681/179
f 173/682/180 164/683/180 1/684/180
f 165/685/181 174/686/181 2/687/181
f 165/688/182 166/689/182 175/690/182 174/691/182
f 166/692/183 167/693/183 176/694/183 175/695/183
f 167/696/184 168/697/184 177/698/184 176/699/184
f 168/700/185 169/701/185 178/702/185 177/703/185
f 169/704/186 170/705/186 179/706/186 178/707/186
f 170/708/187 171/709/187 180/710/187 179/711/187
f 171/712/188 172/713/188 181/714/188 180/715/188
f 172/716/189 173/717/189 182/718/189 181/719/189
f 182/720/190 173/721/190 1/722/190
f 174/723/191 3/724/191 2/725/191
f 174/726/192 175/727/192 4/728/192 3/729/192
f 175/730/193 176/731/193 5/732/193 4/733/193
f 176/734/194 177/735/194 6/736/194 5/737/194
f 177/738/195 178/739/195 7/740/195 6/741/195
f 178/742/196 179/743/196 8/744/196 7/745/196
f 179/746/197 180/747/197 9/748/197 8/749/197
f 180/750/198 181/751/198 10/752/198 9/753/198
f 181/754/199 182/755/199 11/756/199 10/757/199
f 11/758/200 182/759/200 1/760/200